<svg width="250" height="99" viewBox="0 0 250 99" fill="none" xmlns="http://www.w3.org/2000/svg">
<g clip-path="url(#clip0_2234_3255)">
<path d="M164.836 48.1665H161.731C160.809 44.6647 158.903 41.4868 156.231 38.9938C153.559 36.5008 150.227 34.7926 146.614 34.0635C143.001 33.3344 139.252 33.6134 135.793 34.869C132.333 36.1246 129.303 38.3063 127.045 41.1663C124.787 44.0263 123.393 47.4499 123.021 51.048C122.648 54.6461 123.313 58.2745 124.938 61.5209C126.564 64.7673 129.086 67.5015 132.218 69.4128C135.349 71.3241 138.964 72.3359 142.653 72.3332H164.836C168.105 72.3332 171.24 71.0601 173.551 68.794C175.862 66.528 177.16 63.4545 177.16 60.2498C177.16 57.0451 175.862 53.9717 173.551 51.7056C171.24 49.4396 168.105 48.1665 164.836 48.1665Z" stroke="#CCDFFF" stroke-width="10" stroke-linecap="round" stroke-linejoin="round"/>
</g>
<path d="M31.6 70.8C26.4267 71.8667 21.8933 72.4 18 72.4H15.2C11.5733 72.4 8.66667 71.3067 6.48 69.12C4.29333 66.9333 3.2 64.0267 3.2 60.4V44.4C3.2 40.4 4.32 37.28 6.56 35.04C8.85333 32.7467 12 31.6 16 31.6H45.6V76.4C45.6 80.0267 44.5067 82.9333 42.32 85.12C40.1333 87.3067 37.2267 88.4 33.6 88.4C25.2267 88.4 15.8933 87.8667 5.6 86.8V76.4C15.7867 77.2 23.52 77.6 28.8 77.6C29.6 77.6 30.2667 77.3333 30.8 76.8C31.3333 76.2667 31.6 75.6 31.6 74.8V70.8ZM22 61.6C25.36 61.6 28.56 61.3333 31.6 60.8V42.4H20.4C18.2667 42.4 17.2 43.4667 17.2 45.6V58.8C17.2 59.6 17.4667 60.2667 18 60.8C18.5333 61.3333 19.2 61.6 20 61.6H22ZM74.0094 43.2C70.6494 43.2 67.1827 44 63.6094 45.6V74H49.6094V31.6H62.0094L62.8094 36.8C67.396 32.8 72.196 30.8 77.2094 30.8H80.8094V43.2H74.0094ZM124.044 62C124.044 66 122.897 69.1467 120.604 71.44C118.364 73.68 115.244 74.8 111.244 74.8H92.8438C88.8438 74.8 85.6971 73.68 83.4038 71.44C81.1638 69.1467 80.0438 66 80.0438 62V43.6C80.0438 39.6 81.1638 36.48 83.4038 34.24C85.6971 31.9467 88.8438 30.8 92.8438 30.8H111.244C115.244 30.8 118.364 31.9467 120.604 34.24C122.897 36.48 124.044 39.6 124.044 43.6V62ZM110.044 44.8C110.044 42.6667 108.977 41.6 106.844 41.6H97.2438C95.1104 41.6 94.0438 42.6667 94.0438 44.8V60.8C94.0438 62.9333 95.1104 64 97.2438 64H106.844C108.977 64 110.044 62.9333 110.044 60.8V44.8Z" fill="#CCDFFF"/>
<path d="M206.925 33.8C211.245 33.8 214.579 35.4 216.925 38.6C219.379 36.9467 222.019 35.7467 224.845 35C227.725 34.2 230.285 33.8 232.525 33.8H233.325C236.952 33.8 239.859 34.8933 242.045 37.08C244.232 39.2667 245.325 42.1733 245.325 45.8V77H231.325V48.2C231.325 47.4 231.059 46.7333 230.525 46.2C229.992 45.6667 229.325 45.4 228.525 45.4H228.125C225.725 45.4 222.659 45.9333 218.925 47V77H204.925V48.2C204.925 47.4 204.659 46.7333 204.125 46.2C203.592 45.6667 202.925 45.4 202.125 45.4H201.725C199.325 45.4 196.259 45.9333 192.525 47V77H178.525V34.6H190.925L191.725 38.6C194.232 36.9467 196.792 35.7467 199.405 35C202.072 34.2 204.312 33.8 206.125 33.8H206.925Z" fill="#CCDFFF"/>
<defs>
<clipPath id="clip0_2234_3255">
<rect width="59.1554" height="58" fill="white" transform="translate(120.47 24)"/>
</clipPath>
</defs>
</svg>
