<svg width="324" height="137" viewBox="0 0 324 137" fill="none" xmlns="http://www.w3.org/2000/svg">
<path d="M10.238 50.057V96.8844C10.238 99.9347 11.3027 102.49 13.4322 104.634C15.5617 106.777 18.1007 107.849 21.1311 107.849H50.3706V110.57H21.1311C17.3636 110.57 14.0874 109.251 11.4665 106.53C8.84561 103.892 7.53516 100.677 7.53516 96.8844V50.057C7.53516 46.3471 8.84561 43.1319 11.4665 40.4113C14.0874 37.7731 17.3636 36.3716 21.1311 36.3716H50.3706V39.0922H21.1311C18.1007 39.0922 15.5617 40.1639 13.4322 42.3074C11.3027 44.4509 10.238 47.0891 10.238 50.057ZM92.2257 67.7822C95.9933 67.7822 99.1875 69.1837 101.89 71.8218C104.511 74.5424 105.904 77.7577 105.904 81.5501V110.57H103.201V81.5501C103.201 78.5821 102.136 75.944 100.007 73.8005C97.8771 71.657 95.2562 70.5028 92.2257 70.5028H65.6891V110.57H62.9863V36.3716H65.6891V67.7822H92.2257ZM145.335 110.57H129.773C126.006 110.57 122.73 109.251 120.109 106.53C117.406 103.892 116.096 100.677 116.096 96.8844V67.7822H118.798V96.8844C118.798 99.9347 119.863 102.49 121.993 104.634C124.122 106.777 126.661 107.849 129.773 107.849H145.335C148.366 107.849 150.986 106.777 153.116 104.634C155.245 102.49 156.31 99.9347 156.31 96.8844V67.7822H159.013V96.8844C159.013 100.677 157.621 103.892 155 106.53C152.297 109.251 149.103 110.57 145.335 110.57ZM182.883 67.7822H212.122V70.5028H182.883C179.853 70.5028 177.232 71.657 175.102 73.8005C172.973 75.944 171.908 78.5821 171.908 81.5501V110.57H169.205V81.5501C169.205 77.7577 170.516 74.5424 173.218 71.8218C175.839 69.1837 179.115 67.7822 182.883 67.7822ZM234.108 70.5028C231.077 70.5028 228.538 71.657 226.409 73.8005C224.279 75.944 223.214 78.5821 223.214 81.5501V96.8844C223.214 99.9347 224.279 102.49 226.409 104.634C228.538 106.777 231.077 107.849 234.108 107.849H263.429V110.57H234.108C230.34 110.57 227.146 109.251 224.525 106.53C221.822 103.892 220.512 100.677 220.512 96.8844V81.5501C220.512 77.7577 221.822 74.5424 224.525 71.8218C227.146 69.1837 230.34 67.7822 234.108 67.7822H263.429V70.5028H234.108ZM304.662 67.7822C308.43 67.7822 311.624 69.1837 314.327 71.8218C316.948 74.5424 318.34 77.7577 318.34 81.5501V110.57H315.637V81.5501C315.637 78.5821 314.573 75.944 312.443 73.8005C310.314 71.657 307.693 70.5028 304.662 70.5028H278.126V110.57H275.423V36.3716H278.126V67.7822H304.662Z" fill="white"/>
<path d="M289.215 16.9783V18.0986H277.276V34.1894H276.163V18.0986H264.09V16.9783H276.163V3.63721H277.276V16.9783H289.215Z" fill="white"/>
</svg>
