<svg width="134" height="110" viewBox="0 0 134 110" fill="none" xmlns="http://www.w3.org/2000/svg">
<path d="M67.1869 109.839C47.7741 109.839 28.3612 109.839 8.94834 109.839C8.00004 109.839 7.03948 109.839 6.08709 109.747C1.22706 109.32 -0.726757 106.245 1.3456 102.086C3.1441 98.4958 5.1061 94.9977 7.01087 91.4458C16.0034 74.7219 24.9958 58.0005 33.9883 41.2817C34.2663 40.771 34.5565 40.2603 34.8794 39.7726C37.1439 36.3628 40.8226 35.8828 43.7206 38.8242C45.7644 40.8823 47.4934 43.1939 49.3164 45.4249C58.5814 56.7986 67.8464 68.1774 77.1114 79.5614C81.158 84.5148 86.2551 84.7836 91.0088 80.3294C93.3673 78.1176 95.6727 75.8482 98.0598 73.6557C102.364 69.7006 107.248 69.9387 110.764 74.5503C117.819 83.8044 124.698 93.1814 131.61 102.528C132.15 103.261 132.564 104.07 132.836 104.924C133.507 107.07 132.558 108.798 130.241 109.37C128.787 109.697 127.296 109.848 125.802 109.82C106.274 109.85 86.7361 109.857 67.1869 109.839Z" fill="#AEC3DE"/>
<path d="M110.723 18.2003C110.718 21.7699 109.585 25.2577 107.467 28.2216C105.349 31.1855 102.343 33.492 98.8281 34.8486C95.3134 36.2052 91.4491 36.551 87.725 35.8419C84.0009 35.1329 80.5848 33.401 77.9098 30.8659C75.2347 28.3308 73.4211 25.1066 72.699 21.602C71.9769 18.0975 72.3788 14.4704 73.8537 11.1807C75.3285 7.89091 77.81 5.08665 80.9835 3.12337C84.1569 1.1601 87.8795 0.126232 91.6791 0.152845C96.7388 0.213247 101.571 2.139 105.133 5.51497C108.695 8.89093 110.703 13.4467 110.723 18.2003Z" fill="#AEC3DE"/>
</svg>
