<svg width="22" height="23" viewBox="0 0 22 23" fill="none" xmlns="http://www.w3.org/2000/svg">
<rect width="22" height="22" transform="translate(0 0.5)" fill="white"/>
<path d="M16.4999 9.66699H15.3449C15.002 8.33874 14.2933 7.13331 13.2995 6.18769C12.3057 5.24206 11.0666 4.59415 9.72295 4.31758C8.37931 4.04101 6.98503 4.14686 5.69854 4.62312C4.41205 5.09937 3.28494 5.92693 2.44529 7.01176C1.60563 8.09659 1.0871 9.39518 0.948603 10.76C0.810111 12.1248 1.05721 13.5011 1.66183 14.7325C2.26645 15.9638 3.20435 17.0009 4.36894 17.7259C5.53353 18.4509 6.87813 18.8347 8.24994 18.8337H16.4999C17.7155 18.8337 18.8813 18.3508 19.7408 17.4912C20.6004 16.6317 21.0833 15.4659 21.0833 14.2503C21.0833 13.0348 20.6004 11.869 19.7408 11.0094C18.8813 10.1499 17.7155 9.66699 16.4999 9.66699Z" fill="#CCDFFF"/>
</svg>
