<svg width="20" height="20" viewBox="0 0 20 20" fill="none" xmlns="http://www.w3.org/2000/svg">
<path d="M10.0004 12.917C9.22681 12.917 8.48494 12.6097 7.93796 12.0627C7.39098 11.5157 7.08369 10.7739 7.08369 10.0003C7.08369 9.22678 7.39098 8.48491 7.93796 7.93793C8.48494 7.39095 9.22681 7.08366 10.0004 7.08366C10.7739 7.08366 11.5158 7.39095 12.0627 7.93793C12.6097 8.48491 12.917 9.22678 12.917 10.0003C12.917 10.7739 12.6097 11.5157 12.0627 12.0627C11.5158 12.6097 10.7739 12.917 10.0004 12.917ZM16.192 10.8087C16.2254 10.542 16.2504 10.2753 16.2504 10.0003C16.2504 9.72533 16.2254 9.45033 16.192 9.16699L17.9504 7.80866C18.1087 7.68366 18.1504 7.45866 18.0504 7.27532L16.3837 4.39199C16.2837 4.20866 16.0587 4.13366 15.8754 4.20866L13.8004 5.04199C13.367 4.71699 12.917 4.43366 12.392 4.22533L12.0837 2.01699C12.0504 1.81699 11.8754 1.66699 11.667 1.66699H8.33369C8.12535 1.66699 7.95035 1.81699 7.91702 2.01699L7.60869 4.22533C7.08369 4.43366 6.63369 4.71699 6.20035 5.04199L4.12535 4.20866C3.94202 4.13366 3.71702 4.20866 3.61702 4.39199L1.95035 7.27532C1.84202 7.45866 1.89202 7.68366 2.05035 7.80866L3.80869 9.16699C3.77535 9.45033 3.75035 9.72533 3.75035 10.0003C3.75035 10.2753 3.77535 10.542 3.80869 10.8087L2.05035 12.192C1.89202 12.317 1.84202 12.542 1.95035 12.7253L3.61702 15.6087C3.71702 15.792 3.94202 15.8587 4.12535 15.792L6.20035 14.9503C6.63369 15.2837 7.08369 15.567 7.60869 15.7753L7.91702 17.9837C7.95035 18.1837 8.12535 18.3337 8.33369 18.3337H11.667C11.8754 18.3337 12.0504 18.1837 12.0837 17.9837L12.392 15.7753C12.917 15.5587 13.367 15.2837 13.8004 14.9503L15.8754 15.792C16.0587 15.8587 16.2837 15.792 16.3837 15.6087L18.0504 12.7253C18.1504 12.542 18.1087 12.317 17.9504 12.192L16.192 10.8087Z" fill="#3E5692"/>
</svg>
