<svg width="28" height="29" viewBox="0 0 28 29" fill="none" xmlns="http://www.w3.org/2000/svg">
<path d="M21 10.2997C21 8.31939 20.2625 6.42022 18.9497 5.01995C17.637 3.61967 15.8565 2.83301 14 2.83301C12.1435 2.83301 10.363 3.61967 9.05025 5.01995C7.7375 6.42022 7 8.31939 7 10.2997C7 19.0108 3.5 21.4997 3.5 21.4997H24.5C24.5 21.4997 21 19.0108 21 10.2997Z" fill="#0D2040" stroke="#0D2040" stroke-width="3" stroke-linecap="round" stroke-linejoin="round"/>
<path d="M16.0181 25C15.813 25.3536 15.5187 25.6471 15.1643 25.8511C14.8101 26.0551 14.4086 26.1626 13.9998 26.1626C13.591 26.1626 13.1894 26.0551 12.8352 25.8511C12.481 25.6471 12.1865 25.3536 11.9814 25" fill="#D9D9D9"/>
<path d="M16.0181 25C15.813 25.3536 15.5187 25.6471 15.1643 25.8511C14.8101 26.0551 14.4086 26.1626 13.9998 26.1626C13.591 26.1626 13.1894 26.0551 12.8352 25.8511C12.481 25.6471 12.1865 25.3536 11.9814 25" stroke="#21272A" stroke-width="3" stroke-linecap="round" stroke-linejoin="round"/>
</svg>
