<svg width="126" height="64" viewBox="0 0 126 64" fill="none" xmlns="http://www.w3.org/2000/svg">
<g filter="url(#filter0_d_2235_3005)">
<rect x="6" y="4" width="114" height="51.6842" rx="14" fill="#3E5692" fill-opacity="0.8" shape-rendering="crispEdges"/>
<g filter="url(#filter1_d_2235_3005)">
<path d="M52.544 30.1903H49.184V41.7543H46.412V17.8423H49.184V27.5303H52.544V30.1903ZM38.152 37.8063C39.2907 37.8063 40.42 37.7036 41.54 37.4983C42.6787 37.293 43.612 37.013 44.34 36.6583V39.1783C43.6307 39.533 42.688 39.813 41.512 40.0183C40.3547 40.2236 39.188 40.3263 38.012 40.3263H28.66V18.7103H42.464V21.2303H31.488V37.8063H38.152ZM66.4016 26.9143C63.2843 26.9143 60.7456 26.5316 58.7856 25.7663C56.8256 25.001 55.8456 23.8436 55.8456 22.2943C55.8456 20.745 56.8256 19.597 58.7856 18.8503C60.7456 18.085 63.2843 17.7023 66.4016 17.7023C69.5189 17.7023 72.0576 18.085 74.0176 18.8503C75.9776 19.597 76.9576 20.745 76.9576 22.2943C76.9576 23.8436 75.9776 25.001 74.0176 25.7663C72.0576 26.5316 69.5189 26.9143 66.4016 26.9143ZM66.4016 24.7023C68.6416 24.7023 70.4709 24.5063 71.8896 24.1143C73.3083 23.7036 74.0176 23.097 74.0176 22.2943C74.0176 21.5103 73.2989 20.913 71.8616 20.5023C70.4429 20.0916 68.6229 19.8863 66.4016 19.8863C64.1803 19.8863 62.3509 20.0916 60.9136 20.5023C59.4949 20.913 58.7856 21.5103 58.7856 22.2943C58.7856 23.097 59.4949 23.7036 60.9136 24.1143C62.3323 24.5063 64.1616 24.7023 66.4016 24.7023ZM54.4736 28.7903H78.3576V31.0303H54.4736V28.7903ZM56.1256 33.3543H76.6776V41.4743H56.1256V33.3543ZM73.9336 39.2623V35.5663H58.8976V39.2623H73.9336Z" fill="white"/>
</g>
<path d="M94 22.4209L102 30.842L94 39.263" stroke="white" stroke-width="2" stroke-linecap="round" stroke-linejoin="round"/>
</g>
<defs>
<filter id="filter0_d_2235_3005" x="0" y="0" width="126" height="63.6841" filterUnits="userSpaceOnUse" color-interpolation-filters="sRGB">
<feFlood flood-opacity="0" result="BackgroundImageFix"/>
<feColorMatrix in="SourceAlpha" type="matrix" values="0 0 0 0 0 0 0 0 0 0 0 0 0 0 0 0 0 0 127 0" result="hardAlpha"/>
<feOffset dy="2"/>
<feGaussianBlur stdDeviation="3"/>
<feComposite in2="hardAlpha" operator="out"/>
<feColorMatrix type="matrix" values="0 0 0 0 0.313851 0 0 0 0 0.313851 0 0 0 0 0.313851 0 0 0 0.2 0"/>
<feBlend mode="normal" in2="BackgroundImageFix" result="effect1_dropShadow_2235_3005"/>
<feBlend mode="normal" in="SourceGraphic" in2="effect1_dropShadow_2235_3005" result="shape"/>
</filter>
<filter id="filter1_d_2235_3005" x="22.6599" y="13.7021" width="61.6978" height="36.0522" filterUnits="userSpaceOnUse" color-interpolation-filters="sRGB">
<feFlood flood-opacity="0" result="BackgroundImageFix"/>
<feColorMatrix in="SourceAlpha" type="matrix" values="0 0 0 0 0 0 0 0 0 0 0 0 0 0 0 0 0 0 127 0" result="hardAlpha"/>
<feOffset dy="2"/>
<feGaussianBlur stdDeviation="3"/>
<feComposite in2="hardAlpha" operator="out"/>
<feColorMatrix type="matrix" values="0 0 0 0 0.909804 0 0 0 0 0.909804 0 0 0 0 0.937255 0 0 0 1 0"/>
<feBlend mode="normal" in2="BackgroundImageFix" result="effect1_dropShadow_2235_3005"/>
<feBlend mode="normal" in="SourceGraphic" in2="effect1_dropShadow_2235_3005" result="shape"/>
</filter>
</defs>
</svg>
