<svg width="101" height="100" viewBox="0 0 101 100" fill="none" xmlns="http://www.w3.org/2000/svg">
<path d="M29.667 75V70.8333C29.667 59.3275 38.9944 50 50.5003 50C62.0062 50 71.3337 59.3275 71.3337 70.8333V75" stroke="#0D2040" stroke-width="5" stroke-linecap="round"/>
<path d="M50.5 50C57.4037 50 63 44.4037 63 37.5C63 30.5965 57.4037 25 50.5 25C43.5962 25 38 30.5965 38 37.5C38 44.4037 43.5962 50 50.5 50Z" stroke="#0D2040" stroke-width="5" stroke-linecap="round" stroke-linejoin="round"/>
<path d="M50.4997 91.6663C73.5115 91.6663 92.1663 73.0115 92.1663 49.9997C92.1663 26.9878 73.5115 8.33301 50.4997 8.33301C27.4878 8.33301 8.83301 26.9878 8.83301 49.9997C8.83301 73.0115 27.4878 91.6663 50.4997 91.6663Z" stroke="#0D2040" stroke-width="5"/>
</svg>
