<svg width="56" height="41" viewBox="0 0 56 41" fill="none" xmlns="http://www.w3.org/2000/svg">
<path d="M11.667 30.5V28.8333C11.667 24.231 15.398 20.5 20.0003 20.5C24.6027 20.5 28.3337 24.231 28.3337 28.8333V30.5" stroke="#0D2040" stroke-width="2.4" stroke-linecap="round"/>
<path d="M20 20.5C22.7615 20.5 25 18.2615 25 15.5C25 12.7386 22.7615 10.5 20 10.5C17.2385 10.5 15 12.7386 15 15.5C15 18.2615 17.2385 20.5 20 20.5Z" stroke="#0D2040" stroke-width="2.4" stroke-linecap="round" stroke-linejoin="round"/>
<path d="M19.9997 37.1663C29.2044 37.1663 36.6663 29.7044 36.6663 20.4997C36.6663 11.2949 29.2044 3.83301 19.9997 3.83301C10.7949 3.83301 3.33301 11.2949 3.33301 20.4997C3.33301 29.7044 10.7949 37.1663 19.9997 37.1663Z" stroke="#0D2040" stroke-width="2.4"/>
<path d="M46 25.5L50 29.5L54 25.5" stroke="#0D2040" stroke-width="2.4" stroke-linecap="round" stroke-linejoin="round"/>
<path d="M54 15.5L50 11.5L46 15.5" stroke="#0D2040" stroke-width="2.4" stroke-linecap="round" stroke-linejoin="round"/>
</svg>
