<svg width="123" height="48" viewBox="0 0 123 48" fill="none" xmlns="http://www.w3.org/2000/svg">
<path d="M59.01 30.15C59.01 32.1 58.451 33.634 57.333 34.752C56.241 35.844 54.72 36.39 52.77 36.39H43.8C41.85 36.39 40.316 35.844 39.198 34.752C38.106 33.634 37.56 32.1 37.56 30.15V21.18C37.56 19.23 38.106 17.709 39.198 16.617C40.316 15.499 41.85 14.94 43.8 14.94H52.77C54.72 14.94 56.241 15.499 57.333 16.617C58.451 17.709 59.01 19.23 59.01 21.18V30.15ZM52.185 21.765C52.185 20.725 51.665 20.205 50.625 20.205H45.945C44.905 20.205 44.385 20.725 44.385 21.765V29.565C44.385 30.605 44.905 31.125 45.945 31.125H50.625C51.665 31.125 52.185 30.605 52.185 29.565V21.765Z" fill="#CCDFFF"/>
<path d="M15.405 34.44C12.883 34.96 10.673 35.22 8.775 35.22H7.41C5.642 35.22 4.225 34.687 3.159 33.621C2.093 32.555 1.56 31.138 1.56 29.37V21.57C1.56 19.62 2.106 18.099 3.198 17.007C4.316 15.889 5.85 15.33 7.8 15.33H22.23V37.17C22.23 38.938 21.697 40.355 20.631 41.421C19.565 42.487 18.148 43.02 16.38 43.02C12.298 43.02 7.748 42.76 2.73 42.24V37.17C7.696 37.56 11.466 37.755 14.04 37.755C14.43 37.755 14.755 37.625 15.015 37.365C15.275 37.105 15.405 36.78 15.405 36.39V34.44ZM10.725 29.955C12.363 29.955 13.923 29.825 15.405 29.565V20.595H9.945C8.905 20.595 8.385 21.115 8.385 22.155V28.59C8.385 28.98 8.515 29.305 8.775 29.565C9.035 29.825 9.36 29.955 9.75 29.955H10.725Z" fill="#CCDFFF"/>
<path d="M34.845 20.985C33.207 20.985 31.517 21.375 29.775 22.155V36H22.95V15.33H28.995L29.385 17.865C31.621 15.915 33.961 14.94 36.405 14.94H38.16V20.985H34.845Z" fill="#CCDFFF"/>
<path d="M101.795 15.94C103.901 15.94 105.526 16.72 106.67 18.28C107.866 17.474 109.153 16.889 110.531 16.525C111.935 16.135 113.183 15.94 114.275 15.94H114.665C116.433 15.94 117.85 16.473 118.916 17.539C119.982 18.605 120.515 20.022 120.515 21.79V37H113.69V22.96C113.69 22.57 113.56 22.245 113.3 21.985C113.04 21.725 112.715 21.595 112.325 21.595H112.13C110.96 21.595 109.465 21.855 107.645 22.375V37H100.82V22.96C100.82 22.57 100.69 22.245 100.43 21.985C100.17 21.725 99.845 21.595 99.455 21.595H99.26C98.09 21.595 96.595 21.855 94.775 22.375V37H87.95V16.33H93.995L94.385 18.28C95.607 17.474 96.855 16.889 98.129 16.525C99.429 16.135 100.521 15.94 101.405 15.94H101.795Z" fill="#CCDFFF"/>
<g clip-path="url(#clip0_2048_1498)">
<path d="M81.2502 22.917H79.6227C79.1395 21.0454 78.1409 19.3468 76.7406 18.0143C75.3402 16.6819 73.5941 15.7689 71.7008 15.3792C69.8075 14.9895 67.8428 15.1386 66.0301 15.8097C64.2173 16.4808 62.6291 17.6469 61.4459 19.1755C60.2628 20.7041 59.5321 22.534 59.337 24.4571C59.1418 26.3802 59.49 28.3196 60.342 30.0547C61.1939 31.7898 62.5155 33.2512 64.1565 34.2728C65.7976 35.2943 67.6922 35.8351 69.6252 35.8337H81.2502C82.9631 35.8337 84.6058 35.1532 85.817 33.9421C87.0281 32.7309 87.7086 31.0882 87.7086 29.3753C87.7086 27.6625 87.0281 26.0198 85.817 24.8086C84.6058 23.5974 82.9631 22.917 81.2502 22.917Z" stroke="#CCDFFF" stroke-width="4" stroke-linecap="round" stroke-linejoin="round"/>
</g>
<defs>
<clipPath id="clip0_2048_1498">
<rect width="31" height="31" fill="white" transform="translate(58 10)"/>
</clipPath>
</defs>
</svg>
