<svg width="210" height="25" viewBox="0 0 210 25" fill="none" xmlns="http://www.w3.org/2000/svg">
<path d="M17.8828 0.15625V20.8516H16.4062V0.15625H17.8828ZM6.96094 1.79688C10.0078 1.79688 12.1875 4.58594 12.1875 8.94531C12.1875 13.3047 10.0078 16.0938 6.96094 16.0938C3.89062 16.0938 1.73438 13.3047 1.73438 8.94531C1.73438 4.58594 3.89062 1.79688 6.96094 1.79688ZM6.96094 3.10938C4.73438 3.10938 3.16406 5.5 3.16406 8.94531C3.16406 12.4141 4.73438 14.7812 6.96094 14.7812C9.1875 14.7812 10.7344 12.4141 10.7344 8.94531C10.7344 5.5 9.1875 3.10938 6.96094 3.10938ZM32.3203 2.24219V15.5312H22.8984V2.24219H32.3203ZM24.375 3.4375V14.2891H30.8906V3.4375H24.375ZM38.625 0.15625V20.8516H37.1484V0.15625H38.625ZM51.0469 9.90625C55.6172 9.90625 58.1016 9.8125 61.0781 9.29688L61.2422 10.5156C58.1719 11.0547 55.6875 11.125 51.0469 11.125H49.4062V1.44531H59.2969V2.6875H50.9062V5.59375H58.7344V6.8125H50.9062V9.90625H51.0469ZM65.1797 0.15625V12.5078H63.7031V0.15625H65.1797ZM65.1797 13.5859V20.5234H51.8672V13.5859H65.1797ZM53.3203 14.7812V19.3047H63.7266V14.7812H53.3203ZM85.8984 0.15625V20.8516H84.4219V0.15625H85.8984ZM74.9766 1.79688C78.0234 1.79688 80.2031 4.58594 80.2031 8.94531C80.2031 13.3047 78.0234 16.0938 74.9766 16.0938C71.9062 16.0938 69.75 13.3047 69.75 8.94531C69.75 4.58594 71.9062 1.79688 74.9766 1.79688ZM74.9766 3.10938C72.75 3.10938 71.1797 5.5 71.1797 8.94531C71.1797 12.4141 72.75 14.7812 74.9766 14.7812C77.2031 14.7812 78.75 12.4141 78.75 8.94531C78.75 5.5 77.2031 3.10938 74.9766 3.10938ZM102.281 14.2188C102.281 16.1055 103.371 18.1328 105.422 19.2344C107.473 18.0156 108.609 15.8477 108.609 14.2188V12.9297H110.062V14.2188C110.039 16.3516 111.75 18.5078 114.375 19.4219L113.625 20.5469C111.539 19.7852 110.016 18.2852 109.312 16.5156C108.691 18.2148 107.402 19.8789 105.469 20.7109C103.441 19.9258 102.129 18.3555 101.531 16.5859C100.805 18.2734 99.3164 19.7734 97.3125 20.5469L96.5391 19.4219C99.1406 18.4609 100.852 16.1875 100.852 14.2188V12.9297H102.281V14.2188ZM112.453 0.15625V12.0156H110.977V0.15625H112.453ZM101.344 1.42188C104.461 1.42188 106.688 3.34375 106.688 6.20312C106.688 9.03906 104.461 10.9609 101.344 10.9609C98.2266 10.9609 95.9766 9.03906 96 6.20312C95.9766 3.34375 98.2266 1.42188 101.344 1.42188ZM101.344 2.6875C99.0703 2.6875 97.4297 4.16406 97.4297 6.20312C97.4297 8.24219 99.0703 9.71875 101.344 9.71875C103.617 9.71875 105.258 8.24219 105.258 6.20312C105.258 4.16406 103.617 2.6875 101.344 2.6875ZM125.602 1.5625C129.914 1.58594 133.102 3.8125 133.102 7.1875C133.102 10.5625 129.914 12.7891 125.602 12.7656C121.312 12.7891 118.125 10.5625 118.125 7.1875C118.125 3.8125 121.312 1.58594 125.602 1.5625ZM125.602 2.78125C122.133 2.78125 119.508 4.60938 119.508 7.1875C119.508 9.76562 122.133 11.5469 125.602 11.5469C129.07 11.5469 131.695 9.76562 131.695 7.1875C131.695 4.60938 129.07 2.78125 125.602 2.78125ZM135.141 16.7266V17.9922H116.203V16.7266H135.141ZM153.938 0.15625V15.3438H152.461V0.15625H153.938ZM154.617 19.0938V20.3359H140.742V13.9609H142.219V19.0938H154.617ZM144.07 3.41406C144.047 6.71875 146.438 9.60156 149.414 10.7266L148.617 11.9219C146.227 10.9492 144.246 8.98047 143.344 6.4375C142.465 9.13281 140.484 11.2773 138.094 12.2969L137.25 11.125C140.25 9.90625 142.57 6.83594 142.594 3.41406V1.30469H144.07V3.41406ZM173.602 0.15625V8.71094H177.094V9.97656H173.602V20.8281H172.125V0.15625H173.602ZM168.305 2.40625C168.281 8.14844 165.422 13.4688 158.742 16.7734L157.922 15.6016C163.43 12.8828 166.43 8.64062 166.805 3.64844H158.836V2.40625H168.305ZM197.367 16.8203V18.0859H178.43V16.8203H183.258V11.0781C181.441 10.1641 180.352 8.67578 180.352 6.8125C180.352 3.625 183.445 1.5625 187.828 1.53906C192.234 1.5625 195.328 3.625 195.328 6.8125C195.328 8.65234 194.262 10.1289 192.492 11.0312V16.8203H197.367ZM187.828 2.78125C184.312 2.75781 181.758 4.39844 181.758 6.8125C181.758 9.17969 184.312 10.8438 187.828 10.8203C191.344 10.8438 193.922 9.17969 193.922 6.8125C193.922 4.39844 191.344 2.75781 187.828 2.78125ZM184.711 16.8203H191.016V11.5938C190.066 11.875 188.988 12.0156 187.828 12.0156C186.691 12.0156 185.637 11.875 184.711 11.6172V16.8203ZM202.523 13.75C202.547 11.0547 203.414 10.1172 205.031 9.0625C206.227 8.3125 206.906 7.39844 206.906 6.10938C206.906 4.375 205.547 3.22656 203.836 3.22656C202.242 3.22656 200.812 4.25781 200.719 6.27344H199.031C199.102 3.53125 201.188 1.79688 203.836 1.79688C206.625 1.79688 208.523 3.64844 208.523 6.17969C208.523 7.89062 207.727 9.08594 206.18 10.0938C204.68 11.0547 204.164 11.8984 204.141 13.75V14.1484H202.523V13.75ZM203.391 19.1172C202.688 19.1172 202.125 18.5547 202.125 17.875C202.125 17.1719 202.688 16.6094 203.391 16.6094C204.07 16.6094 204.633 17.1719 204.633 17.875C204.633 18.5547 204.07 19.1172 203.391 19.1172Z" fill="#DFDFDF"/>
<path d="M0 22.8672H209.531V24.1797H0V22.8672Z" fill="#DFDFDF"/>
</svg>
