<svg width="151" height="67" viewBox="0 0 151 67" fill="none" xmlns="http://www.w3.org/2000/svg">
<g filter="url(#filter0_d_1291_14583)">
<rect x="4" width="143" height="59" rx="10" fill="#6F7288" fill-opacity="0.5" shape-rendering="crispEdges"/>
<g filter="url(#filter1_d_1291_14583)">
<g filter="url(#filter2_d_1291_14583)">
<path d="M38 19.5L28 29.5L38 39.5" stroke="white" stroke-width="2" stroke-linecap="round" stroke-linejoin="round" shape-rendering="crispEdges"/>
</g>
<path d="M87.8242 13.7344V44.7773H85.6094V13.7344H87.8242ZM71.4414 16.1953C76.0117 16.1953 79.2812 20.3789 79.2812 26.918C79.2812 33.457 76.0117 37.6406 71.4414 37.6406C66.8359 37.6406 63.6016 33.457 63.6016 26.918C63.6016 20.3789 66.8359 16.1953 71.4414 16.1953ZM71.4414 18.1641C68.1016 18.1641 65.7461 21.75 65.7461 26.918C65.7461 32.1211 68.1016 35.6719 71.4414 35.6719C74.7812 35.6719 77.1016 32.1211 77.1016 26.918C77.1016 21.75 74.7812 18.1641 71.4414 18.1641ZM119.043 13.7344V36.5156H116.828V24.3516H110.008V22.4883H116.828V13.7344H119.043ZM119.957 42.1406V44.0039H99.3555V34.4414H101.57V42.1406H119.957ZM103.961 20.2383C103.961 24.3516 107.371 28.2891 111.766 29.8008L110.605 31.5938C107.09 30.293 104.225 27.5859 102.906 24.2461C101.588 27.9902 98.5293 30.9434 94.8555 32.3672L93.6953 30.5391C98.125 28.957 101.746 24.8438 101.746 20.2383V18.3047H94.4688V16.4062H111.133V18.3047H103.961V20.2383Z" fill="white"/>
</g>
</g>
<defs>
<filter id="filter0_d_1291_14583" x="0" y="0" width="151" height="67" filterUnits="userSpaceOnUse" color-interpolation-filters="sRGB">
<feFlood flood-opacity="0" result="BackgroundImageFix"/>
<feColorMatrix in="SourceAlpha" type="matrix" values="0 0 0 0 0 0 0 0 0 0 0 0 0 0 0 0 0 0 127 0" result="hardAlpha"/>
<feOffset dy="4"/>
<feGaussianBlur stdDeviation="2"/>
<feComposite in2="hardAlpha" operator="out"/>
<feColorMatrix type="matrix" values="0 0 0 0 0.499902 0 0 0 0 0.499902 0 0 0 0 0.499902 0 0 0 0.12 0"/>
<feBlend mode="normal" in2="BackgroundImageFix" result="effect1_dropShadow_1291_14583"/>
<feBlend mode="normal" in="SourceGraphic" in2="effect1_dropShadow_1291_14583" result="shape"/>
</filter>
<filter id="filter1_d_1291_14583" x="9" y="8" width="116" height="51" filterUnits="userSpaceOnUse" color-interpolation-filters="sRGB">
<feFlood flood-opacity="0" result="BackgroundImageFix"/>
<feColorMatrix in="SourceAlpha" type="matrix" values="0 0 0 0 0 0 0 0 0 0 0 0 0 0 0 0 0 0 127 0" result="hardAlpha"/>
<feOffset dy="4"/>
<feGaussianBlur stdDeviation="2"/>
<feComposite in2="hardAlpha" operator="out"/>
<feColorMatrix type="matrix" values="0 0 0 0 0 0 0 0 0 0 0 0 0 0 0 0 0 0 0.3 0"/>
<feBlend mode="normal" in2="BackgroundImageFix" result="effect1_dropShadow_1291_14583"/>
<feBlend mode="normal" in="SourceGraphic" in2="effect1_dropShadow_1291_14583" result="shape"/>
</filter>
<filter id="filter2_d_1291_14583" x="23" y="18.5" width="20" height="30" filterUnits="userSpaceOnUse" color-interpolation-filters="sRGB">
<feFlood flood-opacity="0" result="BackgroundImageFix"/>
<feColorMatrix in="SourceAlpha" type="matrix" values="0 0 0 0 0 0 0 0 0 0 0 0 0 0 0 0 0 0 127 0" result="hardAlpha"/>
<feOffset dy="4"/>
<feGaussianBlur stdDeviation="2"/>
<feComposite in2="hardAlpha" operator="out"/>
<feColorMatrix type="matrix" values="0 0 0 0 0 0 0 0 0 0 0 0 0 0 0 0 0 0 0.08 0"/>
<feBlend mode="normal" in2="BackgroundImageFix" result="effect1_dropShadow_1291_14583"/>
<feBlend mode="normal" in="SourceGraphic" in2="effect1_dropShadow_1291_14583" result="shape"/>
</filter>
</defs>
</svg>
