<svg width="117" height="50" viewBox="0 0 117 50" fill="none" xmlns="http://www.w3.org/2000/svg">
<g filter="url(#filter0_d_1448_404)">
<path d="M27.2422 5.73438V18.25H32.5859V20.1133H27.2422V36.7773H25.0273V5.73438H27.2422ZM7.16797 27.0039C13.0742 27.0039 17.082 26.793 21.793 25.9141L22.1094 27.8477C17.2227 28.7266 13.1797 28.9375 7.16797 28.9375H4.77734V8.79297H19.2266V10.6562H6.99219V27.0039H7.16797ZM48.582 6.4375C55.2969 6.4375 59.4453 8.58203 59.4453 12.2734C59.4453 15.9297 55.2969 18.0391 48.582 18.0391C41.9023 18.0391 37.7188 15.9297 37.7188 12.2734C37.7188 8.58203 41.9023 6.4375 48.582 6.4375ZM48.582 8.26562C43.3438 8.26562 39.9688 9.8125 40.0039 12.2734C39.9688 14.6992 43.3438 16.2109 48.582 16.2461C53.7852 16.2109 57.1953 14.6992 57.1953 12.2734C57.1953 9.8125 53.7852 8.26562 48.582 8.26562ZM59.2344 26.2305V36.2852H38V26.2305H59.2344ZM40.1797 28.0234V34.457H57.0898V28.0234H40.1797ZM62.75 20.9922V22.8555H34.4844V20.9922H62.75Z" fill="white"/>
<g filter="url(#filter1_d_1448_404)">
<path d="M88 11.5L98 21.5L88 31.5" stroke="white" stroke-width="2" stroke-linecap="round" stroke-linejoin="round" shape-rendering="crispEdges"/>
</g>
</g>
<defs>
<filter id="filter0_d_1448_404" x="-2" y="0" width="119" height="51" filterUnits="userSpaceOnUse" color-interpolation-filters="sRGB">
<feFlood flood-opacity="0" result="BackgroundImageFix"/>
<feColorMatrix in="SourceAlpha" type="matrix" values="0 0 0 0 0 0 0 0 0 0 0 0 0 0 0 0 0 0 127 0" result="hardAlpha"/>
<feOffset dy="4"/>
<feGaussianBlur stdDeviation="2"/>
<feComposite in2="hardAlpha" operator="out"/>
<feColorMatrix type="matrix" values="0 0 0 0 0 0 0 0 0 0 0 0 0 0 0 0 0 0 0.3 0"/>
<feBlend mode="normal" in2="BackgroundImageFix" result="effect1_dropShadow_1448_404"/>
<feBlend mode="normal" in="SourceGraphic" in2="effect1_dropShadow_1448_404" result="shape"/>
</filter>
<filter id="filter1_d_1448_404" x="83" y="10.5" width="20" height="30" filterUnits="userSpaceOnUse" color-interpolation-filters="sRGB">
<feFlood flood-opacity="0" result="BackgroundImageFix"/>
<feColorMatrix in="SourceAlpha" type="matrix" values="0 0 0 0 0 0 0 0 0 0 0 0 0 0 0 0 0 0 127 0" result="hardAlpha"/>
<feOffset dy="4"/>
<feGaussianBlur stdDeviation="2"/>
<feComposite in2="hardAlpha" operator="out"/>
<feColorMatrix type="matrix" values="0 0 0 0 0 0 0 0 0 0 0 0 0 0 0 0 0 0 0.08 0"/>
<feBlend mode="normal" in2="BackgroundImageFix" result="effect1_dropShadow_1448_404"/>
<feBlend mode="normal" in="SourceGraphic" in2="effect1_dropShadow_1448_404" result="shape"/>
</filter>
</defs>
</svg>
