<svg width="151" height="66" viewBox="0 0 151 66" fill="none" xmlns="http://www.w3.org/2000/svg">
<g filter="url(#filter0_d_1316_2661)">
<rect x="4.5" y="0.5" width="142" height="58" rx="11.5" stroke="white" shape-rendering="crispEdges"/>
<g filter="url(#filter1_d_1316_2661)">
<path d="M53.2422 13.7344V26.25H58.5859V28.1133H53.2422V44.7773H51.0273V13.7344H53.2422ZM33.168 35.0039C39.0742 35.0039 43.082 34.793 47.793 33.9141L48.1094 35.8477C43.2227 36.7266 39.1797 36.9375 33.168 36.9375H30.7773V16.793H45.2266V18.6562H32.9922V35.0039H33.168ZM74.582 14.4375C81.2969 14.4375 85.4453 16.582 85.4453 20.2734C85.4453 23.9297 81.2969 26.0391 74.582 26.0391C67.9023 26.0391 63.7188 23.9297 63.7188 20.2734C63.7188 16.582 67.9023 14.4375 74.582 14.4375ZM74.582 16.2656C69.3438 16.2656 65.9688 17.8125 66.0039 20.2734C65.9688 22.6992 69.3438 24.2109 74.582 24.2461C79.7852 24.2109 83.1953 22.6992 83.1953 20.2734C83.1953 17.8125 79.7852 16.2656 74.582 16.2656ZM85.2344 34.2305V44.2852H64V34.2305H85.2344ZM66.1797 36.0234V42.457H83.0898V36.0234H66.1797ZM88.75 28.9922V30.8555H60.4844V28.9922H88.75Z" fill="white"/>
<g filter="url(#filter2_d_1316_2661)">
<path d="M114 19.5L124 29.5L114 39.5" stroke="white" stroke-width="2" stroke-linecap="round" stroke-linejoin="round" shape-rendering="crispEdges"/>
</g>
</g>
</g>
<defs>
<filter id="filter0_d_1316_2661" x="0" y="0" width="151" height="67" filterUnits="userSpaceOnUse" color-interpolation-filters="sRGB">
<feFlood flood-opacity="0" result="BackgroundImageFix"/>
<feColorMatrix in="SourceAlpha" type="matrix" values="0 0 0 0 0 0 0 0 0 0 0 0 0 0 0 0 0 0 127 0" result="hardAlpha"/>
<feOffset dy="4"/>
<feGaussianBlur stdDeviation="2"/>
<feComposite in2="hardAlpha" operator="out"/>
<feColorMatrix type="matrix" values="0 0 0 0 0.499902 0 0 0 0 0.499902 0 0 0 0 0.499902 0 0 0 0.12 0"/>
<feBlend mode="normal" in2="BackgroundImageFix" result="effect1_dropShadow_1316_2661"/>
<feBlend mode="normal" in="SourceGraphic" in2="effect1_dropShadow_1316_2661" result="shape"/>
</filter>
<filter id="filter1_d_1316_2661" x="24" y="8" width="119" height="51" filterUnits="userSpaceOnUse" color-interpolation-filters="sRGB">
<feFlood flood-opacity="0" result="BackgroundImageFix"/>
<feColorMatrix in="SourceAlpha" type="matrix" values="0 0 0 0 0 0 0 0 0 0 0 0 0 0 0 0 0 0 127 0" result="hardAlpha"/>
<feOffset dy="4"/>
<feGaussianBlur stdDeviation="2"/>
<feComposite in2="hardAlpha" operator="out"/>
<feColorMatrix type="matrix" values="0 0 0 0 0 0 0 0 0 0 0 0 0 0 0 0 0 0 0.3 0"/>
<feBlend mode="normal" in2="BackgroundImageFix" result="effect1_dropShadow_1316_2661"/>
<feBlend mode="normal" in="SourceGraphic" in2="effect1_dropShadow_1316_2661" result="shape"/>
</filter>
<filter id="filter2_d_1316_2661" x="109" y="18.5" width="20" height="30" filterUnits="userSpaceOnUse" color-interpolation-filters="sRGB">
<feFlood flood-opacity="0" result="BackgroundImageFix"/>
<feColorMatrix in="SourceAlpha" type="matrix" values="0 0 0 0 0 0 0 0 0 0 0 0 0 0 0 0 0 0 127 0" result="hardAlpha"/>
<feOffset dy="4"/>
<feGaussianBlur stdDeviation="2"/>
<feComposite in2="hardAlpha" operator="out"/>
<feColorMatrix type="matrix" values="0 0 0 0 0 0 0 0 0 0 0 0 0 0 0 0 0 0 0.08 0"/>
<feBlend mode="normal" in2="BackgroundImageFix" result="effect1_dropShadow_1316_2661"/>
<feBlend mode="normal" in="SourceGraphic" in2="effect1_dropShadow_1316_2661" result="shape"/>
</filter>
</defs>
</svg>
