<svg width="115" height="50" viewBox="0 0 115 50" fill="none" xmlns="http://www.w3.org/2000/svg">
<g filter="url(#filter0_d_1316_2649)">
<g filter="url(#filter1_d_1316_2649)">
<path d="M29 11.5L19 21.5L29 31.5" stroke="white" stroke-width="2" stroke-linecap="round" stroke-linejoin="round" shape-rendering="crispEdges"/>
</g>
<path d="M78.8242 5.73438V36.7773H76.6094V5.73438H78.8242ZM62.4414 8.19531C67.0117 8.19531 70.2812 12.3789 70.2812 18.918C70.2812 25.457 67.0117 29.6406 62.4414 29.6406C57.8359 29.6406 54.6016 25.457 54.6016 18.918C54.6016 12.3789 57.8359 8.19531 62.4414 8.19531ZM62.4414 10.1641C59.1016 10.1641 56.7461 13.75 56.7461 18.918C56.7461 24.1211 59.1016 27.6719 62.4414 27.6719C65.7812 27.6719 68.1016 24.1211 68.1016 18.918C68.1016 13.75 65.7812 10.1641 62.4414 10.1641ZM110.043 5.73438V28.5156H107.828V16.3516H101.008V14.4883H107.828V5.73438H110.043ZM110.957 34.1406V36.0039H90.3555V26.4414H92.5703V34.1406H110.957ZM94.9609 12.2383C94.9609 16.3516 98.3711 20.2891 102.766 21.8008L101.605 23.5938C98.0898 22.293 95.2246 19.5859 93.9062 16.2461C92.5879 19.9902 89.5293 22.9434 85.8555 24.3672L84.6953 22.5391C89.125 20.957 92.7461 16.8438 92.7461 12.2383V10.3047H85.4688V8.40625H102.133V10.3047H94.9609V12.2383Z" fill="white"/>
</g>
<defs>
<filter id="filter0_d_1316_2649" x="0" y="0" width="116" height="51" filterUnits="userSpaceOnUse" color-interpolation-filters="sRGB">
<feFlood flood-opacity="0" result="BackgroundImageFix"/>
<feColorMatrix in="SourceAlpha" type="matrix" values="0 0 0 0 0 0 0 0 0 0 0 0 0 0 0 0 0 0 127 0" result="hardAlpha"/>
<feOffset dy="4"/>
<feGaussianBlur stdDeviation="2"/>
<feComposite in2="hardAlpha" operator="out"/>
<feColorMatrix type="matrix" values="0 0 0 0 0 0 0 0 0 0 0 0 0 0 0 0 0 0 0.3 0"/>
<feBlend mode="normal" in2="BackgroundImageFix" result="effect1_dropShadow_1316_2649"/>
<feBlend mode="normal" in="SourceGraphic" in2="effect1_dropShadow_1316_2649" result="shape"/>
</filter>
<filter id="filter1_d_1316_2649" x="14" y="10.5" width="20" height="30" filterUnits="userSpaceOnUse" color-interpolation-filters="sRGB">
<feFlood flood-opacity="0" result="BackgroundImageFix"/>
<feColorMatrix in="SourceAlpha" type="matrix" values="0 0 0 0 0 0 0 0 0 0 0 0 0 0 0 0 0 0 127 0" result="hardAlpha"/>
<feOffset dy="4"/>
<feGaussianBlur stdDeviation="2"/>
<feComposite in2="hardAlpha" operator="out"/>
<feColorMatrix type="matrix" values="0 0 0 0 0 0 0 0 0 0 0 0 0 0 0 0 0 0 0.08 0"/>
<feBlend mode="normal" in2="BackgroundImageFix" result="effect1_dropShadow_1316_2649"/>
<feBlend mode="normal" in="SourceGraphic" in2="effect1_dropShadow_1316_2649" result="shape"/>
</filter>
</defs>
</svg>
