<svg width="176" height="67" viewBox="0 0 176 67" fill="none" xmlns="http://www.w3.org/2000/svg">
<g filter="url(#filter0_d_1291_14619)">
<rect x="4" width="168" height="59" rx="10" fill="#6F7288" fill-opacity="0.8" shape-rendering="crispEdges"/>
<g filter="url(#filter1_d_1291_14619)">
<path d="M38.0586 22.4883C38.0234 28.1133 42.2773 33.8086 46.6367 35.8477L45.2656 37.6055C41.7676 35.8477 38.4277 31.998 36.9688 27.4102C35.5449 32.2266 32.2402 36.3223 28.707 38.168L27.2656 36.3047C31.625 34.2305 35.8438 28.3242 35.8438 22.4883V16.5117H38.0586V22.4883ZM52.8242 13.7344V44.7773H50.6094V13.7344H52.8242ZM68.6797 19.6406C68.6797 23.9297 72.0195 27.6914 76.4492 29.2383L75.3242 30.9961C71.791 29.6953 68.9434 27.0762 67.625 23.7539C66.3242 27.4277 63.3184 30.2402 59.6797 31.6289L58.4844 29.9062C62.9844 28.2539 66.5 24.2812 66.5352 19.6758V17.8828H59.2227V16.0195H75.8867V17.8828H68.6797V19.6406ZM82.6367 13.7344V22.1367H87.418V24.0703H82.6367V32.4023H80.4219V13.7344H82.6367ZM82.6367 34.1602V44.7422H80.4219V36.0234H62.4922V34.1602H82.6367ZM113.469 13.7344V26.707H118.812V28.6055H113.469V44.7422H111.254V13.7344H113.469ZM107.949 18.832V20.6953H89.4219V18.832H97.6836V14.0508H99.8984V18.832H107.949ZM98.8438 23.543C103.203 23.543 106.332 26.4258 106.332 30.5742C106.332 34.7227 103.203 37.6055 98.8438 37.6055C94.4844 37.6055 91.3203 34.7227 91.3555 30.5742C91.3203 26.4258 94.4844 23.543 98.8438 23.543ZM98.8438 25.4062C95.75 25.4414 93.4648 27.6211 93.4648 30.5742C93.4648 33.5273 95.75 35.707 98.8438 35.6719C101.938 35.707 104.223 33.5273 104.223 30.5742C104.223 27.6211 101.938 25.4414 98.8438 25.4062ZM146.199 13.7344V44.7422H144.02V13.7344H146.199ZM137.059 17.1445C137.023 25.8984 132.629 33.8086 122.434 38.7305L121.203 36.9023C129.711 32.877 134.264 26.5312 134.844 18.9727H122.574V17.1445H137.059Z" fill="white"/>
</g>
</g>
<defs>
<filter id="filter0_d_1291_14619" x="0" y="0" width="176" height="67" filterUnits="userSpaceOnUse" color-interpolation-filters="sRGB">
<feFlood flood-opacity="0" result="BackgroundImageFix"/>
<feColorMatrix in="SourceAlpha" type="matrix" values="0 0 0 0 0 0 0 0 0 0 0 0 0 0 0 0 0 0 127 0" result="hardAlpha"/>
<feOffset dy="4"/>
<feGaussianBlur stdDeviation="2"/>
<feComposite in2="hardAlpha" operator="out"/>
<feColorMatrix type="matrix" values="0 0 0 0 0.499902 0 0 0 0 0.499902 0 0 0 0 0.499902 0 0 0 0.12 0"/>
<feBlend mode="normal" in2="BackgroundImageFix" result="effect1_dropShadow_1291_14619"/>
<feBlend mode="normal" in="SourceGraphic" in2="effect1_dropShadow_1291_14619" result="shape"/>
</filter>
<filter id="filter1_d_1291_14619" x="22" y="8" width="130" height="51" filterUnits="userSpaceOnUse" color-interpolation-filters="sRGB">
<feFlood flood-opacity="0" result="BackgroundImageFix"/>
<feColorMatrix in="SourceAlpha" type="matrix" values="0 0 0 0 0 0 0 0 0 0 0 0 0 0 0 0 0 0 127 0" result="hardAlpha"/>
<feOffset dy="4"/>
<feGaussianBlur stdDeviation="2"/>
<feComposite in2="hardAlpha" operator="out"/>
<feColorMatrix type="matrix" values="0 0 0 0 0 0 0 0 0 0 0 0 0 0 0 0 0 0 0.3 0"/>
<feBlend mode="normal" in2="BackgroundImageFix" result="effect1_dropShadow_1291_14619"/>
<feBlend mode="normal" in="SourceGraphic" in2="effect1_dropShadow_1291_14619" result="shape"/>
</filter>
</defs>
</svg>
