<svg width="128" height="45" viewBox="0 0 128 45" fill="none" xmlns="http://www.w3.org/2000/svg">
<g filter="url(#filter0_d_1316_2646)">
<path d="M15.0586 14.4883C15.0234 20.1133 19.2773 25.8086 23.6367 27.8477L22.2656 29.6055C18.7676 27.8477 15.4277 23.998 13.9688 19.4102C12.5449 24.2266 9.24023 28.3223 5.70703 30.168L4.26562 28.3047C8.625 26.2305 12.8438 20.3242 12.8438 14.4883V8.51172H15.0586V14.4883ZM29.8242 5.73438V36.7773H27.6094V5.73438H29.8242ZM45.6797 11.6406C45.6797 15.9297 49.0195 19.6914 53.4492 21.2383L52.3242 22.9961C48.791 21.6953 45.9434 19.0762 44.625 15.7539C43.3242 19.4277 40.3184 22.2402 36.6797 23.6289L35.4844 21.9062C39.9844 20.2539 43.5 16.2812 43.5352 11.6758V9.88281H36.2227V8.01953H52.8867V9.88281H45.6797V11.6406ZM59.6367 5.73438V14.1367H64.418V16.0703H59.6367V24.4023H57.4219V5.73438H59.6367ZM59.6367 26.1602V36.7422H57.4219V28.0234H39.4922V26.1602H59.6367ZM90.4688 5.73438V18.707H95.8125V20.6055H90.4688V36.7422H88.2539V5.73438H90.4688ZM84.9492 10.832V12.6953H66.4219V10.832H74.6836V6.05078H76.8984V10.832H84.9492ZM75.8438 15.543C80.2031 15.543 83.332 18.4258 83.332 22.5742C83.332 26.7227 80.2031 29.6055 75.8438 29.6055C71.4844 29.6055 68.3203 26.7227 68.3555 22.5742C68.3203 18.4258 71.4844 15.543 75.8438 15.543ZM75.8438 17.4062C72.75 17.4414 70.4648 19.6211 70.4648 22.5742C70.4648 25.5273 72.75 27.707 75.8438 27.6719C78.9375 27.707 81.2227 25.5273 81.2227 22.5742C81.2227 19.6211 78.9375 17.4414 75.8438 17.4062ZM123.199 5.73438V36.7422H121.02V5.73438H123.199ZM114.059 9.14453C114.023 17.8984 109.629 25.8086 99.4336 30.7305L98.2031 28.9023C106.711 24.877 111.264 18.5312 111.844 10.9727H99.5742V9.14453H114.059Z" fill="white"/>
</g>
<defs>
<filter id="filter0_d_1316_2646" x="-1" y="0" width="130" height="51" filterUnits="userSpaceOnUse" color-interpolation-filters="sRGB">
<feFlood flood-opacity="0" result="BackgroundImageFix"/>
<feColorMatrix in="SourceAlpha" type="matrix" values="0 0 0 0 0 0 0 0 0 0 0 0 0 0 0 0 0 0 127 0" result="hardAlpha"/>
<feOffset dy="4"/>
<feGaussianBlur stdDeviation="2"/>
<feComposite in2="hardAlpha" operator="out"/>
<feColorMatrix type="matrix" values="0 0 0 0 0 0 0 0 0 0 0 0 0 0 0 0 0 0 0.3 0"/>
<feBlend mode="normal" in2="BackgroundImageFix" result="effect1_dropShadow_1316_2646"/>
<feBlend mode="normal" in="SourceGraphic" in2="effect1_dropShadow_1316_2646" result="shape"/>
</filter>
</defs>
</svg>
