<svg width="271" height="47" viewBox="0 0 271 47" fill="none" xmlns="http://www.w3.org/2000/svg">
<path d="M23.5 0.5H247.5C260.203 0.5 270.5 10.7975 270.5 23.5C270.5 36.2025 260.203 46.5 247.5 46.5H23.5C10.7975 46.5 0.5 36.2025 0.5 23.5C0.5 10.7975 10.7975 0.5 23.5 0.5Z" fill="white"/>
<path d="M23.5 0.5H247.5C260.203 0.5 270.5 10.7975 270.5 23.5C270.5 36.2025 260.203 46.5 247.5 46.5H23.5C10.7975 46.5 0.5 36.2025 0.5 23.5C0.5 10.7975 10.7975 0.5 23.5 0.5Z" stroke="#C1D5F6"/>
<path fill-rule="evenodd" clip-rule="evenodd" d="M37.64 23.7042C37.64 23.066 37.5827 22.4524 37.4764 21.8633H29V25.3446H33.8436C33.635 26.4696 33.0009 27.4228 32.0477 28.061V30.3192H34.9564C36.6582 28.7524 37.64 26.4451 37.64 23.7042Z" fill="#4285F4"/>
<path fill-rule="evenodd" clip-rule="evenodd" d="M28.9998 32.5C31.4298 32.5 33.467 31.6941 34.9561 30.3195L32.0475 28.0613C31.2416 28.6013 30.2107 28.9204 28.9998 28.9204C26.6557 28.9204 24.6716 27.3372 23.9638 25.21H20.957V27.5418C22.4379 30.4831 25.4816 32.5 28.9998 32.5Z" fill="#34A853"/>
<path fill-rule="evenodd" clip-rule="evenodd" d="M23.9641 25.2098C23.7841 24.6698 23.6818 24.093 23.6818 23.4998C23.6818 22.9066 23.7841 22.3298 23.9641 21.7898V19.458H20.9573C20.3477 20.673 20 22.0476 20 23.4998C20 24.9521 20.3477 26.3266 20.9573 27.5416L23.9641 25.2098Z" fill="#FBBC05"/>
<path fill-rule="evenodd" clip-rule="evenodd" d="M28.9998 18.0795C30.3211 18.0795 31.5075 18.5336 32.4402 19.4255L35.0216 16.8441C33.4629 15.3918 31.4257 14.5 28.9998 14.5C25.4816 14.5 22.4379 16.5168 20.957 19.4582L23.9638 21.79C24.6716 19.6627 26.6557 18.0795 28.9998 18.0795Z" fill="#EA4335"/>
<path d="M60.3633 22.7344V28.1641C60.1615 28.431 59.8457 28.724 59.416 29.043C58.9928 29.3555 58.4297 29.6257 57.7266 29.8535C57.0234 30.0814 56.1478 30.1953 55.0996 30.1953C54.2077 30.1953 53.3906 30.0456 52.6484 29.7461C51.9062 29.4401 51.265 28.9941 50.7246 28.4082C50.1908 27.8223 49.7773 27.1094 49.4844 26.2695C49.1914 25.4232 49.0449 24.4596 49.0449 23.3789V22.3926C49.0449 21.3184 49.1784 20.3613 49.4453 19.5215C49.7188 18.6751 50.1094 17.959 50.6172 17.373C51.125 16.7871 51.737 16.3444 52.4531 16.0449C53.1758 15.7389 53.9928 15.5859 54.9043 15.5859C56.0697 15.5859 57.0332 15.7812 57.7949 16.1719C58.5632 16.556 59.1556 17.0898 59.5723 17.7734C59.9889 18.457 60.2526 19.2383 60.3633 20.1172H57.9609C57.8828 19.6224 57.7298 19.1797 57.502 18.7891C57.2806 18.3984 56.9616 18.0924 56.5449 17.8711C56.1348 17.6432 55.6009 17.5293 54.9434 17.5293C54.377 17.5293 53.8789 17.6367 53.4492 17.8516C53.0195 18.0664 52.6615 18.3822 52.375 18.7988C52.0951 19.2155 51.8835 19.7233 51.7402 20.3223C51.597 20.9212 51.5254 21.6048 51.5254 22.373V23.3789C51.5254 24.1602 51.6068 24.8535 51.7695 25.459C51.9388 26.0645 52.1797 26.5755 52.4922 26.9922C52.8112 27.4089 53.1986 27.7246 53.6543 27.9395C54.11 28.1478 54.6243 28.252 55.1973 28.252C55.7572 28.252 56.2161 28.2064 56.5742 28.1152C56.9323 28.0176 57.2155 27.9036 57.4238 27.7734C57.6387 27.6367 57.8047 27.5065 57.9219 27.3828V24.5605H54.9629V22.7344H60.3633ZM62.3945 24.834V24.6094C62.3945 23.8477 62.5052 23.1413 62.7266 22.4902C62.9479 21.8327 63.2669 21.263 63.6836 20.7812C64.1068 20.293 64.6211 19.9154 65.2266 19.6484C65.8385 19.375 66.5286 19.2383 67.2969 19.2383C68.0716 19.2383 68.7617 19.375 69.3672 19.6484C69.9792 19.9154 70.4967 20.293 70.9199 20.7812C71.3431 21.263 71.6654 21.8327 71.8867 22.4902C72.1081 23.1413 72.2188 23.8477 72.2188 24.6094V24.834C72.2188 25.5957 72.1081 26.3021 71.8867 26.9531C71.6654 27.6042 71.3431 28.1738 70.9199 28.6621C70.4967 29.1439 69.9824 29.5215 69.377 29.7949C68.7715 30.0618 68.0846 30.1953 67.3164 30.1953C66.5417 30.1953 65.8483 30.0618 65.2363 29.7949C64.6309 29.5215 64.1165 29.1439 63.6934 28.6621C63.2702 28.1738 62.9479 27.6042 62.7266 26.9531C62.5052 26.3021 62.3945 25.5957 62.3945 24.834ZM64.748 24.6094V24.834C64.748 25.3092 64.7969 25.7585 64.8945 26.1816C64.9922 26.6048 65.1452 26.9759 65.3535 27.2949C65.5618 27.6139 65.8288 27.8646 66.1543 28.0469C66.4798 28.2292 66.8672 28.3203 67.3164 28.3203C67.7526 28.3203 68.1302 28.2292 68.4492 28.0469C68.7747 27.8646 69.0417 27.6139 69.25 27.2949C69.4583 26.9759 69.6113 26.6048 69.709 26.1816C69.8132 25.7585 69.8652 25.3092 69.8652 24.834V24.6094C69.8652 24.1406 69.8132 23.6979 69.709 23.2812C69.6113 22.8581 69.4551 22.4837 69.2402 22.1582C69.0319 21.8327 68.765 21.5788 68.4395 21.3965C68.1204 21.2077 67.7396 21.1133 67.2969 21.1133C66.8542 21.1133 66.4701 21.2077 66.1445 21.3965C65.8255 21.5788 65.5618 21.8327 65.3535 22.1582C65.1452 22.4837 64.9922 22.8581 64.8945 23.2812C64.7969 23.6979 64.748 24.1406 64.748 24.6094ZM73.7422 24.834V24.6094C73.7422 23.8477 73.8529 23.1413 74.0742 22.4902C74.2956 21.8327 74.6146 21.263 75.0312 20.7812C75.4544 20.293 75.9688 19.9154 76.5742 19.6484C77.1862 19.375 77.8763 19.2383 78.6445 19.2383C79.4193 19.2383 80.1094 19.375 80.7148 19.6484C81.3268 19.9154 81.8444 20.293 82.2676 20.7812C82.6908 21.263 83.013 21.8327 83.2344 22.4902C83.4557 23.1413 83.5664 23.8477 83.5664 24.6094V24.834C83.5664 25.5957 83.4557 26.3021 83.2344 26.9531C83.013 27.6042 82.6908 28.1738 82.2676 28.6621C81.8444 29.1439 81.3301 29.5215 80.7246 29.7949C80.1191 30.0618 79.4323 30.1953 78.6641 30.1953C77.8893 30.1953 77.196 30.0618 76.584 29.7949C75.9785 29.5215 75.4642 29.1439 75.041 28.6621C74.6178 28.1738 74.2956 27.6042 74.0742 26.9531C73.8529 26.3021 73.7422 25.5957 73.7422 24.834ZM76.0957 24.6094V24.834C76.0957 25.3092 76.1445 25.7585 76.2422 26.1816C76.3398 26.6048 76.4928 26.9759 76.7012 27.2949C76.9095 27.6139 77.1764 27.8646 77.502 28.0469C77.8275 28.2292 78.2148 28.3203 78.6641 28.3203C79.1003 28.3203 79.4779 28.2292 79.7969 28.0469C80.1224 27.8646 80.3893 27.6139 80.5977 27.2949C80.806 26.9759 80.959 26.6048 81.0566 26.1816C81.1608 25.7585 81.2129 25.3092 81.2129 24.834V24.6094C81.2129 24.1406 81.1608 23.6979 81.0566 23.2812C80.959 22.8581 80.8027 22.4837 80.5879 22.1582C80.3796 21.8327 80.1126 21.5788 79.7871 21.3965C79.4681 21.2077 79.0872 21.1133 78.6445 21.1133C78.2018 21.1133 77.8177 21.2077 77.4922 21.3965C77.1732 21.5788 76.9095 21.8327 76.7012 22.1582C76.4928 22.4837 76.3398 22.8581 76.2422 23.2812C76.1445 23.6979 76.0957 24.1406 76.0957 24.6094ZM92.3066 19.4336H94.4453V29.707C94.4453 30.6576 94.2435 31.4648 93.8398 32.1289C93.4362 32.793 92.873 33.2975 92.1504 33.6426C91.4277 33.9941 90.5911 34.1699 89.6406 34.1699C89.237 34.1699 88.7878 34.1113 88.293 33.9941C87.8047 33.877 87.3294 33.6882 86.8672 33.4277C86.4115 33.1738 86.0306 32.8385 85.7246 32.4219L86.8281 31.0352C87.2057 31.4844 87.6224 31.8132 88.0781 32.0215C88.5339 32.2298 89.0124 32.334 89.5137 32.334C90.054 32.334 90.513 32.2331 90.8906 32.0312C91.2747 31.8359 91.571 31.5462 91.7793 31.1621C91.9876 30.778 92.0918 30.3092 92.0918 29.7559V21.8262L92.3066 19.4336ZM85.1289 24.834V24.6289C85.1289 23.8281 85.2266 23.099 85.4219 22.4414C85.6172 21.7773 85.8971 21.2077 86.2617 20.7324C86.6263 20.2507 87.069 19.8828 87.5898 19.6289C88.1107 19.3685 88.6999 19.2383 89.3574 19.2383C90.041 19.2383 90.6237 19.362 91.1055 19.6094C91.5938 19.8568 92.0007 20.2116 92.3262 20.6738C92.6517 21.1296 92.9056 21.6764 93.0879 22.3145C93.2767 22.946 93.4167 23.6491 93.5078 24.4238V25.0781C93.4232 25.8333 93.2799 26.5234 93.0781 27.1484C92.8763 27.7734 92.6094 28.3138 92.2773 28.7695C91.9453 29.2253 91.5352 29.5768 91.0469 29.8242C90.5651 30.0716 89.9954 30.1953 89.3379 30.1953C88.6934 30.1953 88.1107 30.0618 87.5898 29.7949C87.0755 29.528 86.6328 29.1536 86.2617 28.6719C85.8971 28.1901 85.6172 27.6237 85.4219 26.9727C85.2266 26.3151 85.1289 25.6022 85.1289 24.834ZM87.4824 24.6289V24.834C87.4824 25.3158 87.528 25.765 87.6191 26.1816C87.7168 26.5983 87.8633 26.9661 88.0586 27.2852C88.2604 27.5977 88.5143 27.8451 88.8203 28.0273C89.1328 28.2031 89.5007 28.291 89.9238 28.291C90.4772 28.291 90.9297 28.1738 91.2812 27.9395C91.6393 27.7051 91.9128 27.3893 92.1016 26.9922C92.2969 26.5885 92.4336 26.1393 92.5117 25.6445V23.877C92.4727 23.4928 92.3913 23.1348 92.2676 22.8027C92.1504 22.4707 91.9909 22.181 91.7891 21.9336C91.5872 21.6797 91.3333 21.4844 91.0273 21.3477C90.7214 21.2044 90.36 21.1328 89.9434 21.1328C89.5202 21.1328 89.1523 21.224 88.8398 21.4062C88.5273 21.5885 88.2702 21.8392 88.0684 22.1582C87.873 22.4772 87.7266 22.8483 87.6289 23.2715C87.5312 23.6947 87.4824 24.1471 87.4824 24.6289ZM99.4062 15V30H97.043V15H99.4062ZM106.643 30.1953C105.861 30.1953 105.155 30.0684 104.523 29.8145C103.898 29.554 103.365 29.1927 102.922 28.7305C102.486 28.2682 102.15 27.7246 101.916 27.0996C101.682 26.4746 101.564 25.8008 101.564 25.0781V24.6875C101.564 23.8607 101.685 23.112 101.926 22.4414C102.167 21.7708 102.502 21.1979 102.932 20.7227C103.361 20.2409 103.869 19.873 104.455 19.6191C105.041 19.3652 105.676 19.2383 106.359 19.2383C107.115 19.2383 107.775 19.3652 108.342 19.6191C108.908 19.873 109.377 20.2311 109.748 20.6934C110.126 21.1491 110.406 21.6927 110.588 22.3242C110.777 22.9557 110.871 23.6523 110.871 24.4141V25.4199H102.707V23.7305H108.547V23.5449C108.534 23.1217 108.449 22.7246 108.293 22.3535C108.143 21.9824 107.912 21.6829 107.6 21.4551C107.287 21.2272 106.87 21.1133 106.35 21.1133C105.959 21.1133 105.611 21.1979 105.305 21.3672C105.005 21.5299 104.755 21.7676 104.553 22.0801C104.351 22.3926 104.195 22.7702 104.084 23.2129C103.98 23.6491 103.928 24.1406 103.928 24.6875V25.0781C103.928 25.5404 103.99 25.9701 104.113 26.3672C104.243 26.7578 104.432 27.0996 104.68 27.3926C104.927 27.6855 105.227 27.9167 105.578 28.0859C105.93 28.2487 106.33 28.3301 106.779 28.3301C107.346 28.3301 107.85 28.2161 108.293 27.9883C108.736 27.7604 109.12 27.4382 109.445 27.0215L110.686 28.2227C110.458 28.5547 110.161 28.8737 109.797 29.1797C109.432 29.4792 108.986 29.7233 108.459 29.9121C107.938 30.1009 107.333 30.1953 106.643 30.1953ZM124.477 18.5H128.497V19.84H124.477V18.5ZM124.337 23.04H128.457V24.38H124.337V23.04ZM131.237 13.48H132.837V31.56H131.237V13.48ZM127.617 13.94H129.177V30.64H127.617V13.94ZM123.577 15.76H125.177C125.177 20.5 123.277 24.76 118.417 27.66L117.457 26.48C121.677 23.92 123.577 20.32 123.577 16.06V15.76ZM118.257 15.76H124.237V17.12H118.257V15.76ZM145.515 18.16H149.595V19.54H145.515V18.16ZM149.075 13.48H150.735V24.26H149.075V13.48ZM144.795 24.8C148.515 24.8 150.815 26.06 150.815 28.18C150.815 30.32 148.515 31.54 144.795 31.54C141.055 31.54 138.755 30.32 138.755 28.18C138.755 26.06 141.055 24.8 144.795 24.8ZM144.795 26.1C142.075 26.1 140.415 26.86 140.415 28.18C140.415 29.48 142.075 30.24 144.795 30.24C147.515 30.24 149.175 29.48 149.175 28.18C149.175 26.86 147.515 26.1 144.795 26.1ZM140.475 15.3H141.835V16.76C141.835 20.1 139.795 22.96 136.795 24.08L135.935 22.76C138.615 21.78 140.475 19.36 140.475 16.76V15.3ZM140.795 15.3H142.135V16.76C142.135 19.1 143.895 21.34 146.515 22.26L145.675 23.58C142.735 22.52 140.795 19.8 140.795 16.76V15.3ZM136.435 14.8H146.095V16.16H136.435V14.8ZM162.433 14.62C166.193 14.62 168.993 16.62 168.993 19.62C168.993 22.64 166.193 24.62 162.433 24.62C158.673 24.62 155.853 22.64 155.853 19.62C155.853 16.62 158.673 14.62 162.433 14.62ZM162.433 15.98C159.573 15.98 157.453 17.44 157.453 19.62C157.453 21.78 159.573 23.26 162.433 23.26C165.293 23.26 167.413 21.78 167.413 19.62C167.413 17.44 165.293 15.98 162.433 15.98ZM154.273 27.78H170.653V29.18H154.273V27.78ZM172.672 27.96H189.052V29.34H172.672V27.96ZM179.992 24.08H181.652V28.54H179.992V24.08ZM174.652 14.82H187.032V20.3H176.352V23.92H174.712V18.96H185.392V16.16H174.652V14.82ZM174.712 23.22H187.452V24.58H174.712V23.22ZM196.051 27.96H212.431V29.34H196.051V27.96ZM203.371 24.08H205.031V28.54H203.371V24.08ZM198.031 14.82H210.411V20.3H199.731V23.92H198.091V18.96H208.771V16.16H198.031V14.82ZM198.091 23.22H210.831V24.58H198.091V23.22ZM216.209 15.4H227.849V16.74H216.209V15.4ZM214.449 27.54H230.789V28.92H214.449V27.54ZM226.969 15.4H228.589V17.2C228.589 19.52 228.589 22.1 227.909 26L226.249 25.84C226.969 22.14 226.969 19.44 226.969 17.2V15.4ZM245.988 13.5H247.668V26.7H245.988V13.5ZM236.048 29.8H248.208V31.16H236.048V29.8ZM236.048 25.34H237.688V30.26H236.048V25.34ZM237.968 14.74C240.668 14.74 242.668 16.58 242.668 19.2C242.668 21.8 240.668 23.66 237.968 23.66C235.268 23.66 233.248 21.8 233.248 19.2C233.248 16.58 235.268 14.74 237.968 14.74ZM237.968 16.18C236.208 16.18 234.868 17.42 234.868 19.2C234.868 20.96 236.208 22.2 237.968 22.2C239.728 22.2 241.068 20.96 241.068 19.2C241.068 17.42 239.728 16.18 237.968 16.18Z" fill="#1F1F1F"/>
</svg>
