<svg width="376" height="61" viewBox="0 0 376 61" fill="none" xmlns="http://www.w3.org/2000/svg">
<path d="M30.1867 0.754668H345.299C361.554 0.754668 374.731 13.9319 374.731 30.1867C374.731 46.4416 361.554 59.6188 345.299 59.6188H30.1867C13.9319 59.6188 0.754668 46.4416 0.754668 30.1867C0.754668 13.9319 13.9318 0.754668 30.1867 0.754668Z" stroke="white" stroke-width="1.50934"/>
<path fill-rule="evenodd" clip-rule="evenodd" d="M44.737 30.4958C44.737 29.5326 44.6505 28.6064 44.49 27.7173H31.6963V32.9718H39.007C38.6921 34.6698 37.735 36.1085 36.2963 37.0717V40.4801H40.6864C43.2551 38.1152 44.737 34.6328 44.737 30.4958Z" fill="#4285F4"/>
<path fill-rule="evenodd" clip-rule="evenodd" d="M31.6958 43.7706C35.3635 43.7706 38.4384 42.5543 40.686 40.4796L36.2959 37.0712C35.0795 37.8863 33.5235 38.3679 31.6958 38.3679C28.1578 38.3679 25.1631 35.9783 24.0949 32.7676H19.5566V36.2871C21.7918 40.7266 26.3857 43.7706 31.6958 43.7706Z" fill="#34A853"/>
<path fill-rule="evenodd" clip-rule="evenodd" d="M24.0955 32.7674C23.8238 31.9523 23.6694 31.0817 23.6694 30.1864C23.6694 29.2911 23.8238 28.4205 24.0955 27.6054V24.0859H19.5572C18.6371 25.9198 18.1123 27.9944 18.1123 30.1864C18.1123 32.3784 18.6371 34.453 19.5572 36.2869L24.0955 32.7674Z" fill="#FBBC05"/>
<path fill-rule="evenodd" clip-rule="evenodd" d="M31.6958 22.0058C33.6902 22.0058 35.4808 22.6911 36.8886 24.0372L40.7848 20.141C38.4323 17.9491 35.3573 16.603 31.6958 16.603C26.3857 16.603 21.7918 19.6471 19.5566 24.0866L24.0949 27.6061C25.1631 24.3953 28.1578 22.0058 31.6958 22.0058Z" fill="#EA4335"/>
<path d="M71.8573 19.388C73.4339 19.388 74.8806 19.6805 76.1972 20.2657C77.5301 20.8346 78.6354 21.6229 79.5131 22.6307C80.3908 23.6385 80.9841 24.7682 81.2929 26.0198H80.2445C79.9845 24.9307 79.4481 23.9554 78.6354 23.094C77.8389 22.2162 76.8474 21.5335 75.6608 21.0459C74.4905 20.5583 73.2308 20.3145 71.8816 20.3145C70.1587 20.3145 68.6226 20.7046 67.2735 21.4848C65.9244 22.265 64.8679 23.354 64.1039 24.7519C63.3562 26.1335 62.9824 27.694 62.9824 29.4332C62.9824 31.1887 63.3562 32.7572 64.1039 34.1388C64.8679 35.5204 65.9244 36.6014 67.2735 37.3816C68.6389 38.1618 70.1993 38.5519 71.9548 38.5519C73.5315 38.5519 74.9619 38.2106 76.246 37.5279C77.5301 36.8614 78.546 35.9187 79.2937 34.6996C80.0576 33.4805 80.464 32.0826 80.5127 30.506H71.3209V29.5551H81.5855V30.189C81.5855 31.9932 81.1548 33.6024 80.2933 35.0166C79.4481 36.4307 78.2778 37.5279 76.7824 38.3081C75.3032 39.0883 73.6615 39.4784 71.8573 39.4784C69.9392 39.4784 68.2244 39.0477 66.7128 38.1862C65.2173 37.3247 64.047 36.13 63.2018 34.6021C62.3566 33.0742 61.934 31.3512 61.934 29.4332C61.934 27.5152 62.3566 25.7922 63.2018 24.2643C64.047 22.7364 65.2173 21.5417 66.7128 20.6802C68.2244 19.8187 69.9392 19.388 71.8573 19.388ZM91.4258 25.0689C92.7099 25.0689 93.8639 25.3858 94.888 26.0198C95.9283 26.6374 96.741 27.4989 97.3261 28.6042C97.9113 29.6932 98.2039 30.9042 98.2039 32.2371C98.2039 33.5699 97.9113 34.789 97.3261 35.8943C96.741 36.9833 95.9283 37.8367 94.888 38.4544C93.8639 39.0883 92.7099 39.4052 91.4258 39.4052C90.1417 39.4052 88.9795 39.0883 87.9392 38.4544C86.9152 37.8367 86.1106 36.9833 85.5254 35.8943C84.9403 34.789 84.6477 33.5699 84.6477 32.2371C84.6477 30.9042 84.9403 29.6932 85.5254 28.6042C86.1106 27.4989 86.9152 26.6374 87.9392 26.0198C88.9795 25.3858 90.1417 25.0689 91.4258 25.0689ZM91.4258 26.0198C90.3042 26.0198 89.3046 26.2961 88.4268 26.8487C87.5654 27.3851 86.8908 28.1247 86.4032 29.0675C85.9155 30.0102 85.6717 31.0667 85.6717 32.2371C85.6717 33.4074 85.9155 34.4639 86.4032 35.4067C86.8908 36.3494 87.5654 37.089 88.4268 37.6254C89.3046 38.178 90.3042 38.4544 91.4258 38.4544C92.5473 38.4544 93.5389 38.178 94.4003 37.6254C95.2781 37.089 95.9608 36.3494 96.4484 35.4067C96.936 34.4639 97.1798 33.4074 97.1798 32.2371C97.1798 31.0667 96.936 30.0102 96.4484 29.0675C95.9608 28.1247 95.2781 27.3851 94.4003 26.8487C93.5389 26.2961 92.5473 26.0198 91.4258 26.0198ZM107.998 25.0689C109.282 25.0689 110.436 25.3858 111.46 26.0198C112.5 26.6374 113.313 27.4989 113.898 28.6042C114.483 29.6932 114.776 30.9042 114.776 32.2371C114.776 33.5699 114.483 34.789 113.898 35.8943C113.313 36.9833 112.5 37.8367 111.46 38.4544C110.436 39.0883 109.282 39.4052 107.998 39.4052C106.714 39.4052 105.551 39.0883 104.511 38.4544C103.487 37.8367 102.682 36.9833 102.097 35.8943C101.512 34.789 101.22 33.5699 101.22 32.2371C101.22 30.9042 101.512 29.6932 102.097 28.6042C102.682 27.4989 103.487 26.6374 104.511 26.0198C105.551 25.3858 106.714 25.0689 107.998 25.0689ZM107.998 26.0198C106.876 26.0198 105.876 26.2961 104.999 26.8487C104.137 27.3851 103.463 28.1247 102.975 29.0675C102.487 30.0102 102.244 31.0667 102.244 32.2371C102.244 33.4074 102.487 34.4639 102.975 35.4067C103.463 36.3494 104.137 37.089 104.999 37.6254C105.876 38.178 106.876 38.4544 107.998 38.4544C109.119 38.4544 110.111 38.178 110.972 37.6254C111.85 37.089 112.533 36.3494 113.02 35.4067C113.508 34.4639 113.752 33.4074 113.752 32.2371C113.752 31.0667 113.508 30.0102 113.02 29.0675C112.533 28.1247 111.85 27.3851 110.972 26.8487C110.111 26.2961 109.119 26.0198 107.998 26.0198ZM124.984 45.3056C123.18 45.3056 121.749 44.8586 120.693 43.9646C119.653 43.0869 118.994 41.9491 118.718 40.5512H119.791C119.986 41.6402 120.514 42.5423 121.376 43.2575C122.253 43.989 123.456 44.3547 124.984 44.3547C126.577 44.3547 127.861 43.8508 128.836 42.8431C129.812 41.8515 130.299 40.4699 130.299 38.6982V35.7968C130.104 36.3494 129.738 36.9021 129.202 37.4547C128.682 38.0074 128.007 38.4706 127.178 38.8445C126.349 39.2183 125.431 39.4052 124.423 39.4052C123.172 39.4052 122.042 39.0883 121.034 38.4544C120.026 37.8367 119.23 36.9833 118.645 35.8943C118.076 34.789 117.791 33.5699 117.791 32.2371C117.791 30.9042 118.076 29.6932 118.645 28.6042C119.23 27.4989 120.026 26.6374 121.034 26.0198C122.042 25.3858 123.172 25.0689 124.423 25.0689C125.431 25.0689 126.349 25.2558 127.178 25.6296C128.007 26.0035 128.682 26.4667 129.202 27.0194C129.738 27.572 130.104 28.1247 130.299 28.6773V25.4102H131.323V38.6982C131.323 40.0148 131.063 41.1689 130.543 42.1604C130.023 43.1681 129.283 43.9402 128.324 44.4766C127.365 45.0293 126.252 45.3056 124.984 45.3056ZM124.496 38.4544C125.618 38.4544 126.618 38.178 127.495 37.6254C128.389 37.089 129.08 36.3494 129.568 35.4067C130.072 34.4477 130.324 33.3911 130.324 32.2371C130.324 31.083 130.072 30.0346 129.568 29.0918C129.08 28.1328 128.389 27.3851 127.495 26.8487C126.618 26.2961 125.618 26.0198 124.496 26.0198C123.375 26.0198 122.383 26.2961 121.522 26.8487C120.66 27.3851 119.994 28.1247 119.523 29.0675C119.051 30.0102 118.815 31.0667 118.815 32.2371C118.815 33.4074 119.051 34.4639 119.523 35.4067C119.994 36.3494 120.66 37.089 121.522 37.6254C122.383 38.178 123.375 38.4544 124.496 38.4544ZM136.833 39.0639H135.809V19.2173H136.833V39.0639ZM147.21 39.4052C145.958 39.4052 144.828 39.0883 143.821 38.4544C142.813 37.8367 142.016 36.9833 141.431 35.8943C140.862 34.8053 140.578 33.5862 140.578 32.2371C140.578 30.8879 140.862 29.6689 141.431 28.5798C142.016 27.4908 142.813 26.6374 143.821 26.0198C144.828 25.3858 145.958 25.0689 147.21 25.0689C148.461 25.0689 149.591 25.3858 150.599 26.0198C151.606 26.6374 152.395 27.4908 152.964 28.5798C153.549 29.6689 153.841 30.8879 153.841 32.2371C153.841 32.4646 153.833 32.619 153.817 32.7003H141.626C141.691 33.7894 141.968 34.7727 142.455 35.6505C142.943 36.5282 143.593 37.2109 144.406 37.6985C145.235 38.2024 146.169 38.4544 147.21 38.4544C148.396 38.4544 149.428 38.1862 150.306 37.6498C151.2 37.1296 151.801 36.4551 152.11 35.6261H153.232C152.842 36.7314 152.102 37.6335 151.013 38.3325C149.94 39.0477 148.672 39.4052 147.21 39.4052ZM152.793 31.7494C152.728 30.6604 152.452 29.6851 151.964 28.8236C151.476 27.9459 150.818 27.2632 149.989 26.7756C149.176 26.2717 148.25 26.0198 147.21 26.0198C146.169 26.0198 145.235 26.2717 144.406 26.7756C143.593 27.2632 142.943 27.9459 142.455 28.8236C141.968 29.6851 141.691 30.6604 141.626 31.7494H152.793ZM183.034 18.9003V39.7222H182.01V18.9003H183.034ZM177.06 19.0466H178.084V39.3565H177.06V32.2858H171.233C170.55 34.1226 169.608 35.5611 168.405 36.6014C167.218 37.6416 165.812 38.1618 164.187 38.1618V37.1865C165.65 37.1865 166.926 36.6664 168.015 35.6261C169.104 34.5858 169.933 33.1473 170.502 31.3106C171.087 29.4738 171.379 27.3932 171.379 25.0689V20.8265H164.187V19.8756H172.403V24.7763H177.06V19.0466ZM177.06 31.3349V25.7272H172.403C172.322 27.8728 172.038 29.742 171.55 31.3349H177.06ZM205.073 23.4109V18.9003H206.097V30.6523H205.073V24.3374H200.026V23.4109H205.073ZM194.15 24.9713C193.548 26.2717 192.679 27.3282 191.541 28.141C190.403 28.9537 189.046 29.4982 187.469 29.7745V28.7993C189.485 28.4254 191.069 27.5395 192.223 26.1417C193.394 24.7438 194.028 22.907 194.125 20.6314H187.713V19.6805H201.025V20.6314H195.149C195.101 21.8342 194.897 22.9639 194.54 24.0205L201.659 28.7993L201.074 29.6038L194.15 24.9713ZM197.685 31.6275C200.253 31.6275 202.326 31.9526 203.902 32.6028C205.479 33.253 206.267 34.2445 206.267 35.5773C206.267 36.9102 205.479 37.9017 203.902 38.5519C202.326 39.2021 200.253 39.5272 197.685 39.5272C195.117 39.5272 193.044 39.2021 191.468 38.5519C189.891 37.9017 189.103 36.9102 189.103 35.5773C189.103 34.2445 189.891 33.253 191.468 32.6028C193.044 31.9526 195.117 31.6275 197.685 31.6275ZM197.685 38.5763C199.912 38.5763 201.724 38.3162 203.122 37.7961C204.52 37.2922 205.219 36.5526 205.219 35.5773C205.219 34.6021 204.52 33.8625 203.122 33.3586C201.724 32.8385 199.912 32.5784 197.685 32.5784C195.458 32.5784 193.646 32.8385 192.248 33.3586C190.85 33.8625 190.151 34.6021 190.151 35.5773C190.151 36.5526 190.85 37.2922 192.248 37.7961C193.646 38.3162 195.458 38.5763 197.685 38.5763ZM220.748 19.5586C222.585 19.5586 224.186 19.8187 225.551 20.3388C226.916 20.859 227.973 21.6067 228.721 22.5819C229.468 23.541 229.842 24.6625 229.842 25.9466C229.842 27.2307 229.468 28.3604 228.721 29.3356C227.973 30.2947 226.916 31.0342 225.551 31.5544C224.186 32.0745 222.585 32.3346 220.748 32.3346C218.911 32.3346 217.31 32.0745 215.945 31.5544C214.579 31.0342 213.523 30.2947 212.775 29.3356C212.027 28.3604 211.654 27.2307 211.654 25.9466C211.654 24.6625 212.027 23.541 212.775 22.5819C213.523 21.6067 214.579 20.859 215.945 20.3388C217.31 19.8187 218.911 19.5586 220.748 19.5586ZM220.748 20.5095C219.139 20.5095 217.725 20.7371 216.505 21.1922C215.303 21.6311 214.368 22.265 213.702 23.094C213.035 23.9229 212.702 24.8738 212.702 25.9466C212.702 27.0194 213.035 27.9703 213.702 28.7993C214.368 29.6282 215.303 30.2703 216.505 30.7254C217.725 31.1643 219.139 31.3837 220.748 31.3837C222.357 31.3837 223.763 31.1643 224.966 30.7254C226.185 30.2703 227.128 29.6282 227.794 28.7993C228.461 27.9703 228.794 27.0194 228.794 25.9466C228.794 24.8738 228.461 23.9229 227.794 23.094C227.128 22.265 226.185 21.6311 224.966 21.1922C223.763 20.7371 222.357 20.5095 220.748 20.5095ZM231.037 38.5031H210.459V37.5522H231.037V38.5031ZM254.49 37.5522V38.5031H233.912V37.5522H243.616V32.3102H235.521V25.6053H251.954V20.8265H235.521V19.8756H252.978V26.5561H236.545V31.3593H253.344V32.3102H244.64V37.5522H254.49ZM283.094 18.9003V39.7222H282.07V18.9003H283.094ZM272.878 19.5342C272.846 22.9152 272.561 25.8491 272.025 28.336L279.217 37.601L278.413 38.2106L271.757 29.5307C271.106 32.0989 270.18 34.1388 268.977 35.6505C267.791 37.1621 266.376 38.0318 264.735 38.2593V37.3084C266.279 37.0159 267.579 36.0325 268.636 34.3583C269.709 32.6678 270.505 30.5303 271.025 27.9459C271.562 25.3614 271.838 22.5494 271.854 19.5099L272.878 19.5342ZM309.253 24.9226H305.962V31.3837H304.938V18.9003H305.962V23.9717H309.253V24.9226ZM294.673 25.4346C294.056 26.8325 293.178 27.9622 292.04 28.8236C290.902 29.6689 289.553 30.2296 287.993 30.506V29.5307C290.041 29.1569 291.642 28.2141 292.796 26.7024C293.966 25.1745 294.584 23.1508 294.649 20.6314H288.237V19.6805H301.549V20.6314H295.673C295.624 22.0456 295.413 23.3296 295.039 24.4837L302.012 29.5307L301.427 30.3353L294.673 25.4346ZM289.065 32.8466H305.962V39.5272H304.938V33.7975H289.065V32.8466ZM318.858 22.7282H325.099V23.6791H311.616V22.7282H317.834V18.8516H318.858V22.7282ZM332.706 28.9699H329.415V39.7222H328.391V18.9003H329.415V28.019H332.706V28.9699ZM318.346 25.971C319.37 25.971 320.304 26.2311 321.15 26.7512C322.011 27.2551 322.686 27.9865 323.173 28.9455C323.677 29.8883 323.929 30.9855 323.929 32.2371C323.929 33.4886 323.677 34.5939 323.173 35.553C322.686 36.4957 322.011 37.219 321.15 37.7229C320.304 38.2431 319.37 38.5031 318.346 38.5031C317.322 38.5031 316.379 38.2431 315.517 37.7229C314.672 37.219 313.998 36.4957 313.494 35.553C313.006 34.5939 312.762 33.4886 312.762 32.2371C312.762 30.9855 313.006 29.8883 313.494 28.9455C313.998 27.9865 314.672 27.2551 315.517 26.7512C316.379 26.2311 317.322 25.971 318.346 25.971ZM318.346 37.5522C319.158 37.5522 319.906 37.3328 320.589 36.8939C321.288 36.4551 321.84 35.8374 322.247 35.0409C322.669 34.2282 322.881 33.2936 322.881 32.2371C322.881 31.1805 322.669 30.254 322.247 29.4576C321.84 28.6448 321.288 28.019 320.589 27.5802C319.906 27.1413 319.158 26.9219 318.346 26.9219C317.533 26.9219 316.777 27.1413 316.078 27.5802C315.396 28.019 314.843 28.6448 314.42 29.4576C314.014 30.254 313.811 31.1805 313.811 32.2371C313.811 33.2936 314.014 34.2282 314.42 35.0409C314.843 35.8374 315.396 36.4551 316.078 36.8939C316.777 37.3328 317.533 37.5522 318.346 37.5522ZM353.453 39.7222H352.429V18.9003H353.453V39.7222ZM346.87 24.3862C346.87 27.1332 346.423 29.547 345.529 31.6275C344.635 33.7081 343.343 35.3173 341.652 36.4551C339.978 37.5929 337.995 38.1618 335.703 38.1618V37.1865C337.751 37.1865 339.539 36.6745 341.067 35.6505C342.595 34.6102 343.774 33.1311 344.603 31.213C345.432 29.295 345.846 27.0519 345.846 24.4837V20.8265H335.703V19.8756H346.87V24.3862Z" fill="white"/>
</svg>
