<svg width="205" height="47" viewBox="0 0 205 47" fill="none" xmlns="http://www.w3.org/2000/svg">
<rect x="0.5" y="0.5" width="204" height="46" rx="9.5" stroke="#C1C1C1"/>
<path d="M30.1911 16.2998L35.9657 22.0745M30.1911 16.2998L33.4909 13L39.2655 18.7747L35.9657 22.0745L30.1911 16.2998ZM30.1911 16.2998L18.9833 27.5075C18.7645 27.7263 18.6416 28.0231 18.6416 28.3325V33.6239H23.9331C24.2425 33.6239 24.5392 33.5011 24.758 33.2822L35.9657 22.0745L30.1911 16.2998Z" stroke="#C1C1C1" stroke-linecap="round" stroke-linejoin="round"/>
<path d="M70.912 25.588H50.024V24.496H54.756V13.492H50.276V12.4H70.66V13.492H66.18V24.496H70.912V25.588ZM55.932 24.496H65.004V13.492H55.932V24.496ZM72.284 32.364V33.512H48.652V32.364H72.284ZM99.2176 32.42V33.512H75.5856V32.42H86.7296V26.4H77.4336V18.7H96.3056V13.212H77.4336V12.12H97.4816V19.792H78.6096V25.308H97.9016V26.4H87.9056V32.42H99.2176ZM124.219 23.096H123.043V11H124.219V23.096ZM120.775 20.548C119.935 20.94 118.75 21.248 117.219 21.472C115.689 21.696 113.859 21.808 111.731 21.808H102.827V20.744H106.607V12.904H102.827V11.84H119.515V12.904H115.735V20.576C117.826 20.3893 119.506 19.988 120.775 19.372V20.548ZM111.647 20.744C112.693 20.744 113.663 20.716 114.559 20.66V12.904H107.783V20.744H111.647ZM125.059 33.288V34.352H104.843V29.032H123.043V25.84H104.787V24.776H124.219V30.068H106.019V33.288H125.059ZM162.108 18.42V19.512H158.384V29.228H157.18V11H158.384V18.42H162.108ZM150.516 12.68H138.672V11.588H151.692V20.94H150.516V12.68ZM154.688 23.796C153.214 24.468 150.124 24.804 145.42 24.804H137.3V23.712H143.124V16.992H144.3V23.712H145.532C150.068 23.712 153.12 23.376 154.688 22.704V23.796ZM140.408 33.26H159.28V34.352H139.232V27.744H140.408V33.26ZM185.934 34.912H184.758V11H185.934V34.912ZM179.018 22.956H167.062V32.14H175.574C176.713 32.14 177.842 32.0373 178.962 31.832C180.101 31.6267 181.034 31.3467 181.762 30.992V32.084C181.053 32.4387 180.138 32.7187 179.018 32.924C177.898 33.1293 176.75 33.232 175.574 33.232H165.858V21.864H177.842V13.212H165.802V12.12H179.018V22.956Z" fill="#C1C1C1"/>
</svg>
