<svg width="173" height="39" viewBox="0 0 173 39" fill="none" xmlns="http://www.w3.org/2000/svg">
<rect width="173" height="39" rx="10" fill="#C0C0FD" fill-opacity="0.6"/>
<path d="M66.9 19.26H64.2V28.08H63.36V11H64.2V18.48H66.9V19.26ZM49.94 11.8H58.92V15.5C58.92 17.74 58.5667 19.7133 57.86 21.42C57.1533 23.1133 56.12 24.4333 54.76 25.38C53.4133 26.3267 51.8067 26.8 49.94 26.8V26C51.6067 26 53.0533 25.5733 54.28 24.72C55.5067 23.8533 56.4467 22.64 57.1 21.08C57.7533 19.5067 58.08 17.6733 58.08 15.58V12.58H49.94V11.8ZM83.9183 11V19.92H83.0783V11H83.9183ZM79.2183 15.42C79.2183 16.22 79.0116 16.9333 78.5983 17.56C78.1849 18.1733 77.5849 18.66 76.7983 19.02C76.0116 19.3667 75.0916 19.54 74.0383 19.54C72.9849 19.54 72.0649 19.3667 71.2783 19.02C70.4916 18.66 69.8916 18.1733 69.4783 17.56C69.0649 16.9333 68.8583 16.22 68.8583 15.42C68.8583 14.62 69.0649 13.9133 69.4783 13.3C69.8916 12.6733 70.4916 12.1867 71.2783 11.84C72.0649 11.48 72.9849 11.3 74.0383 11.3C75.0916 11.3 76.0116 11.48 76.7983 11.84C77.5849 12.1867 78.1849 12.6733 78.5983 13.3C79.0116 13.9133 79.2183 14.62 79.2183 15.42ZM69.6983 15.42C69.6983 16.4733 70.0983 17.3067 70.8983 17.92C71.6983 18.52 72.7449 18.82 74.0383 18.82C75.3316 18.82 76.3783 18.52 77.1783 17.92C77.9783 17.3067 78.3783 16.4733 78.3783 15.42C78.3783 14.3667 77.9783 13.54 77.1783 12.94C76.3783 12.3267 75.3316 12.02 74.0383 12.02C72.7449 12.02 71.6983 12.3267 70.8983 12.94C70.0983 13.54 69.6983 14.3667 69.6983 15.42ZM83.0783 20.78H83.9183V27.68H70.2583V20.78H71.0983V23.26H83.0783V20.78ZM83.0783 26.92V24H71.0983V26.92H83.0783ZM94.0166 14.14H99.1366V14.92H88.0766V14.14H93.1766V10.96H94.0166V14.14ZM105.377 19.26H102.677V28.08H101.837V11H102.677V18.48H105.377V19.26ZM93.5966 16.8C94.4366 16.8 95.2032 17.0133 95.8966 17.44C96.6032 17.8533 97.1566 18.4533 97.5566 19.24C97.9699 20.0133 98.1766 20.9133 98.1766 21.94C98.1766 22.9667 97.9699 23.8733 97.5566 24.66C97.1566 25.4333 96.6032 26.0267 95.8966 26.44C95.2032 26.8667 94.4366 27.08 93.5966 27.08C92.7566 27.08 91.9832 26.8667 91.2766 26.44C90.5832 26.0267 90.0299 25.4333 89.6166 24.66C89.2166 23.8733 89.0166 22.9667 89.0166 21.94C89.0166 20.9133 89.2166 20.0133 89.6166 19.24C90.0299 18.4533 90.5832 17.8533 91.2766 17.44C91.9832 17.0133 92.7566 16.8 93.5966 16.8ZM93.5966 26.3C94.2632 26.3 94.8766 26.12 95.4366 25.76C96.0099 25.4 96.4632 24.8933 96.7966 24.24C97.1432 23.5733 97.3166 22.8067 97.3166 21.94C97.3166 21.0733 97.1432 20.3133 96.7966 19.66C96.4632 18.9933 96.0099 18.48 95.4366 18.12C94.8766 17.76 94.2632 17.58 93.5966 17.58C92.9299 17.58 92.3099 17.76 91.7366 18.12C91.1766 18.48 90.7232 18.9933 90.3766 19.66C90.0432 20.3133 89.8766 21.0733 89.8766 21.94C89.8766 22.8067 90.0432 23.5733 90.3766 24.24C90.7232 24.8933 91.1766 25.4 91.7366 25.76C92.3099 26.12 92.9299 26.3 93.5966 26.3ZM122.395 28.08H121.555V11H122.395V28.08ZM116.995 15.5C116.995 17.7533 116.628 19.7333 115.895 21.44C115.162 23.1467 114.102 24.4667 112.715 25.4C111.342 26.3333 109.715 26.8 107.835 26.8V26C109.515 26 110.982 25.58 112.235 24.74C113.488 23.8867 114.455 22.6733 115.135 21.1C115.815 19.5267 116.155 17.6867 116.155 15.58V12.58H107.835V11.8H116.995V15.5Z" fill="#EFEFF0"/>
</svg>
